<svg xmlns="http://www.w3.org/2000/svg" width="102" height="82" fill="none" viewBox="0 0 102 62">
    <path fill="#fff" d="M25.5 62H0L37.2 0l13.3 22L75 62H48.5L37.2 42 25.5 62z"/>
    <path fill="#fff" d="M49.5 62V28.184l34-1.012c4.568 0 9.726 2.793 12.956 5.964 3.23 3.17 5.044 7.471 5.044 11.956 0 4.484-1.814 8.785-5.044 11.956-3.23 3.17-7.61 4.952-12.179 4.952H49.5zm0-33.816V1h28.027c3.672 0 7.193 1.432 9.79 3.981 2.596 2.549 4.054 6.006 4.054 9.61 0 3.606-1.775 7.86-4.371 10.409-2.596 2.549-5.801 4-9.473 4L49.5 28.184z"/>
    <path fill="url(#paint0_linear)" d="M24.24 59.583H3.5L37.15 3.5l13.03 21.713L70.8 59.581H50.063L37.15 38.067 24.24 59.583z"/>
    <path fill="url(#paint1_linear)" d="M51.363 59.6V28.5h31.4c4.124 0 8.08 1.638 10.995 4.554 2.916 2.917 4.555 6.872 4.555 10.996 0 4.124-1.639 8.08-4.555 10.995-2.916 2.917-6.871 4.555-10.995 4.555h-31.4zm0-31.1v-25h25.305c3.315 0 6.494 1.317 8.839 3.661 2.344 2.344 3.66 5.524 3.66 8.839 0 3.315-1.316 6.495-3.66 8.839-2.345 2.344-5.524 3.661-8.84 3.661H51.364z"/>
    <path fill="#28A7DF" d="M70.795 59.586H51.363v-32.4l19.436 32.4h-.004z"/>
    <defs>
        <linearGradient id="paint0_linear" x1="52.023" x2="17.676" y1="14.212" y2="71.879" gradientUnits="userSpaceOnUse">
            <stop stop-color="#FAD12A"/>
            <stop offset=".999" stop-color="#F36F31"/>
            <stop offset="1" stop-color="#0071BC"/>
        </linearGradient>
        <linearGradient id="paint1_linear" x1="74.838" x2="74.838" y1="3.5" y2="59.6" gradientUnits="userSpaceOnUse">
            <stop stop-color="#28A7DF"/>
            <stop offset="1" stop-color="#2860DF"/>
        </linearGradient>
    </defs>
</svg>
