<svg width="278" height="76" viewBox="0 0 278 76" fill="none" xmlns="http://www.w3.org/2000/svg">
<path d="M64.3387 60.9542H55.5107V68.6542H65.6613V70.0036H53.916V51.1276H65.5947V52.4769H55.5107V59.6049H64.3387V60.9542Z" fill="#A63438"/>
<path d="M70.3182 55.977L70.3715 58.3744C70.8982 57.5104 71.5555 56.8504 72.3408 56.397C73.1275 55.9437 73.9955 55.717 74.9462 55.717C76.4515 55.717 77.5702 56.141 78.3048 56.9877C79.0395 57.8344 79.4102 59.105 79.4195 60.7984V70.0037H77.8768V60.785C77.8675 59.533 77.6022 58.5997 77.0795 57.9864C76.5568 57.3717 75.7195 57.0637 74.5715 57.0637C73.6115 57.0637 72.7622 57.3664 72.0235 57.9664C71.2848 58.5664 70.7382 59.377 70.3848 60.3957V70.0037H68.8408V55.977H70.3182Z" fill="#A63438"/>
<path d="M84.5568 63.1326C84.5568 64.9206 84.9168 66.3326 85.6328 67.3646C86.3501 68.398 87.3621 68.914 88.6661 68.914C90.5768 68.914 91.9288 68.0593 92.7234 66.3473V59.826C92.3608 58.9273 91.8381 58.2433 91.1554 57.7713C90.4728 57.3006 89.6514 57.0646 88.6928 57.0646C87.3874 57.0646 86.3714 57.5766 85.6461 58.6006C84.9194 59.626 84.5568 61.1353 84.5568 63.1326ZM82.9888 62.8593C82.9888 60.6633 83.4741 58.926 84.4474 57.6406C85.4181 56.358 86.7394 55.7166 88.4074 55.7166C90.3168 55.7166 91.7688 56.4766 92.7634 57.9993L92.8408 55.9766H94.2928V69.718C94.2928 71.5233 93.7874 72.9553 92.7768 74.0086C91.7648 75.0633 90.3954 75.5913 88.6661 75.5913C87.6901 75.5913 86.7581 75.3713 85.8728 74.9366C84.9874 74.4993 84.2888 73.918 83.7794 73.1926L84.6474 72.2593C85.7448 73.606 87.0501 74.2806 88.5634 74.2806C89.8594 74.2806 90.8701 73.898 91.5968 73.134C92.3221 72.3686 92.6981 71.3073 92.7234 69.95V68.1886C91.7301 69.57 90.2821 70.262 88.3808 70.262C86.7554 70.262 85.4514 69.614 84.4661 68.318C83.4808 67.022 82.9888 65.2713 82.9888 63.0686V62.8593Z" fill="#A63438"/>
<path d="M100.261 70.0031H98.7051V50.0911H100.261V70.0031Z" fill="#A63438"/>
<path d="M106.396 70.0031H104.841V55.9764H106.396V70.0031ZM104.569 51.9244C104.569 51.6324 104.663 51.3857 104.854 51.1844C105.045 50.9817 105.304 50.8817 105.632 50.8817C105.961 50.8817 106.222 50.9817 106.416 51.1844C106.61 51.3857 106.708 51.6324 106.708 51.9244C106.708 52.2177 106.61 52.4617 106.416 52.6604C106.222 52.8564 105.961 52.9551 105.632 52.9551C105.304 52.9551 105.045 52.8564 104.854 52.6604C104.663 52.4617 104.569 52.2177 104.569 51.9244Z" fill="#A63438"/>
<path d="M119.196 66.438C119.196 65.6686 118.888 65.05 118.27 64.5846C117.651 64.1166 116.72 63.7526 115.475 63.4886C114.231 63.2246 113.266 62.922 112.578 62.5806C111.891 62.2406 111.38 61.8233 111.048 61.33C110.715 60.8366 110.55 60.242 110.55 59.5406C110.55 58.4353 111.011 57.522 111.936 56.7993C112.862 56.078 114.044 55.7166 115.488 55.7166C117.054 55.7166 118.308 56.1033 119.254 56.8766C120.2 57.6513 120.674 58.6593 120.674 59.9046H119.119C119.119 59.082 118.775 58.4006 118.087 57.8566C117.402 57.3113 116.534 57.0393 115.488 57.0393C114.468 57.0393 113.65 57.2673 113.032 57.7193C112.415 58.1726 112.106 58.7633 112.106 59.49C112.106 60.1886 112.362 60.7313 112.876 61.1166C113.391 61.5006 114.328 61.854 115.69 62.1726C117.05 62.4926 118.071 62.834 118.75 63.1966C119.427 63.5606 119.931 63.9953 120.259 64.5073C120.587 65.0166 120.752 65.634 120.752 66.3593C120.752 67.5446 120.274 68.4913 119.319 69.1993C118.364 69.9086 117.118 70.262 115.58 70.262C113.946 70.262 112.622 69.8673 111.607 69.0766C110.59 68.2846 110.083 67.2846 110.083 66.0753H111.639C111.699 66.982 112.082 67.6886 112.786 68.194C113.49 68.7006 114.42 68.9526 115.58 68.9526C116.659 68.9526 117.532 68.7153 118.198 68.2393C118.863 67.7646 119.196 67.1633 119.196 66.438Z" fill="#A63438"/>
<path d="M125.967 58.3488C126.477 57.5114 127.13 56.8621 127.923 56.4048C128.719 55.9461 129.589 55.7168 130.53 55.7168C132.034 55.7168 133.154 56.1408 133.887 56.9874C134.623 57.8341 134.994 59.1048 135.003 60.7981V70.0034H133.461V60.7861C133.45 59.5328 133.186 58.5994 132.662 57.9861C132.139 57.3728 131.303 57.0648 130.155 57.0648C129.195 57.0648 128.346 57.3661 127.607 57.9661C126.867 58.5674 126.322 59.3768 125.967 60.3968V70.0034H124.425V50.0914H125.967V58.3488Z" fill="#A63438"/>
<path d="M21.5973 9.17371V1.97371H0V37.971H21.5973V30.771H7.19867V23.5724H14.3987V16.3724H7.19867V9.17371H21.5973Z" fill="#A63438"/>
<path d="M21.5972 16.3729V23.5716H28.7972V37.9702H35.9958V16.3729H21.5972Z" fill="#A63438"/>
<path d="M25.6182 7.16263C25.6182 10.0293 27.9422 12.352 30.8088 12.352C33.6742 12.352 35.9968 10.0293 35.9968 7.16263C35.9968 4.29596 33.6742 1.97329 30.8088 1.97329C27.9422 1.97329 25.6182 4.29596 25.6182 7.16263Z" fill="#A63438"/>
<path d="M57.878 1.9777L71.1526 33.743L84.4766 1.9777H88.53V37.9697H85.49V22.2977L85.738 6.2297L72.3393 37.9697H69.99L56.6406 6.3537L56.8886 22.199V37.9697H53.8486V1.9777H57.878Z" fill="#A63438"/>
<path d="M99.0065 37.9697H96.0398V11.2231H99.0065V37.9697ZM95.5225 3.49773C95.5225 2.94173 95.7011 2.47106 96.0651 2.08572C96.4278 1.70039 96.9225 1.50839 97.5491 1.50839C98.1731 1.50839 98.6731 1.70039 99.0438 2.08572C99.4131 2.47106 99.6011 2.94173 99.6011 3.49773C99.6011 4.05506 99.4131 4.52172 99.0438 4.89772C98.6731 5.27506 98.1731 5.46306 97.5491 5.46306C96.9225 5.46306 96.4278 5.27506 96.0651 4.89772C95.7011 4.52172 95.5225 4.05506 95.5225 3.49773Z" fill="#A63438"/>
<path d="M109.353 11.2232L109.452 15.7965C110.456 14.1485 111.709 12.8912 113.209 12.0272C114.709 11.1618 116.364 10.7285 118.179 10.7285C121.045 10.7285 123.18 11.5365 124.58 13.1512C125.981 14.7658 126.689 17.1898 126.707 20.4192V37.9698H123.765V20.3938C123.748 18.0045 123.241 16.2245 122.244 15.0552C121.247 13.8845 119.653 13.3005 117.46 13.3005C115.631 13.3005 114.013 13.8725 112.604 15.0178C111.195 16.1632 110.152 17.7085 109.476 19.6525V37.9698H106.533V11.2232H109.353Z" fill="#A63438"/>
<path d="M135.642 24.8684C135.642 28.2804 136.325 30.971 137.694 32.939C139.061 34.9097 140.99 35.8937 143.478 35.8937C147.121 35.8937 149.706 34.287 151.24 31.0737V18.515C149.706 15.0377 147.137 13.3004 143.528 13.3004C141.04 13.3004 139.104 14.2764 137.72 16.2297C136.334 18.1817 135.642 21.0617 135.642 24.8684ZM132.65 24.3497C132.65 20.1964 133.577 16.8884 135.432 14.4244C137.285 11.9604 139.802 10.7284 142.984 10.7284C146.593 10.7284 149.345 12.1537 151.24 15.0057V0.000358331H154.181V37.9697H151.413L151.289 34.4097C149.394 37.1137 146.609 38.4644 142.934 38.4644C139.852 38.4644 137.368 37.2244 135.481 34.7444C133.593 32.263 132.65 28.915 132.65 24.6964V24.3497Z" fill="#A63438"/>
<path d="M177.227 31.1724C177.227 29.7057 176.639 28.5271 175.459 27.6377C174.281 26.7471 172.506 26.0511 170.133 25.5484C167.759 25.0457 165.918 24.4697 164.609 23.8177C163.298 23.1671 162.326 22.3711 161.691 21.4324C161.057 20.4924 160.739 19.3564 160.739 18.0204C160.739 15.9124 161.619 14.1697 163.385 12.7924C165.147 11.4164 167.406 10.7284 170.157 10.7284C173.141 10.7284 175.534 11.4671 177.338 12.9417C179.143 14.4164 180.045 16.3404 180.045 18.7137H177.079C177.079 17.1471 176.423 15.8457 175.115 14.8071C173.803 13.7697 172.151 13.2497 170.157 13.2497C168.213 13.2497 166.651 13.6831 165.473 14.5484C164.295 15.4124 163.705 16.5377 163.705 17.9217C163.705 19.2564 164.197 20.2911 165.177 21.0244C166.158 21.7577 167.945 22.4297 170.541 23.0391C173.137 23.6484 175.082 24.2991 176.374 24.9911C177.669 25.6844 178.629 26.5164 179.255 27.4884C179.882 28.4617 180.194 29.6404 180.194 31.0231C180.194 33.2817 179.283 35.0871 177.462 36.4377C175.642 37.7884 173.263 38.4644 170.331 38.4644C167.215 38.4644 164.691 37.7097 162.755 36.2017C160.818 34.6951 159.849 32.7871 159.849 30.4791H162.815C162.931 32.2097 163.661 33.5577 165.003 34.5217C166.346 35.4857 168.122 35.9671 170.331 35.9671C172.391 35.9671 174.054 35.5151 175.325 34.6084C176.593 33.7017 177.227 32.5564 177.227 31.1724Z" fill="#A63438"/>
<path d="M204.623 24.3495C204.623 20.9375 203.924 18.2441 202.523 16.2668C201.121 14.2881 199.168 13.3001 196.664 13.3001C194.851 13.3001 193.293 13.7361 191.992 14.6095C190.691 15.4841 189.693 16.7521 189.001 18.4161V31.2455C189.708 32.7788 190.721 33.9495 192.041 34.7561C193.359 35.5641 194.917 35.9668 196.712 35.9668C199.201 35.9668 201.143 34.9748 202.535 32.9881C203.927 31.0028 204.623 28.1241 204.623 24.3495ZM207.589 24.8681C207.589 29.0375 206.667 32.3468 204.821 34.7935C202.976 37.2401 200.504 38.4641 197.405 38.4641C193.747 38.4641 190.945 37.1788 189.001 34.6081V48.2534H186.059V11.2228H188.803L188.951 15.0055C190.879 12.1548 193.673 10.7281 197.331 10.7281C200.529 10.7281 203.037 11.9401 204.857 14.3628C206.68 16.7855 207.589 20.1468 207.589 24.4481V24.8681Z" fill="#A63438"/>
<path d="M220.971 35.8442C222.948 35.8442 224.716 35.3669 226.272 34.4096C227.83 33.4549 228.963 32.1776 229.672 30.5789V24.6962H224.383C221.432 24.7296 219.124 25.2682 217.46 26.3149C215.796 27.3616 214.964 28.7989 214.964 30.6282C214.964 32.1282 215.52 33.3722 216.632 34.3616C217.746 35.3496 219.191 35.8442 220.971 35.8442ZM230.266 37.9696C229.968 37.1296 229.779 35.8856 229.696 34.2376C228.659 35.5896 227.335 36.6309 225.728 37.3642C224.123 38.0976 222.422 38.4642 220.624 38.4642C218.054 38.4642 215.972 37.7482 214.382 36.3149C212.791 34.8789 211.998 33.0669 211.998 30.8749C211.998 28.2709 213.08 26.2122 215.248 24.6962C217.415 23.1789 220.435 22.4216 224.308 22.4216H229.672V19.3802C229.672 17.4696 229.083 15.9656 227.904 14.8696C226.726 13.7736 225.007 13.2256 222.75 13.2256C220.69 13.2256 218.983 13.7536 217.632 14.8069C216.282 15.8629 215.606 17.1309 215.606 18.6149L212.639 18.5896C212.639 16.4629 213.628 14.6216 215.606 13.0656C217.583 11.5069 220.014 10.7282 222.899 10.7282C225.882 10.7282 228.234 11.4749 229.956 12.9656C231.678 14.4576 232.564 16.5376 232.614 19.2069V31.8642C232.614 34.4522 232.887 36.3882 233.428 37.6736V37.9696H230.266Z" fill="#A63438"/>
<path d="M252.656 13.7446C252.031 13.63 251.363 13.5713 250.653 13.5713C248.808 13.5713 247.247 14.0873 245.969 15.1166C244.692 16.1473 243.781 17.642 243.237 19.6033V37.97H240.296V11.2233H243.189L243.237 15.4753C244.803 12.3113 247.317 10.7286 250.777 10.7286C251.603 10.7286 252.252 10.8353 252.731 11.05L252.656 13.7446Z" fill="#A63438"/>
<path d="M263.176 24.4973L259.789 27.76V37.9693H256.822V-3.07976e-05H259.789V24.3L262.582 21.284L272.817 11.2226H276.549L265.202 22.496L277.537 37.9693H274.002L263.176 24.4973Z" fill="#A63438"/>
</svg>
