<svg width="299" height="76" viewBox="0 0 299 76" fill="none" xmlns="http://www.w3.org/2000/svg">
<path d="M69.4972 70.3175C69.4972 69.1935 69.1012 68.3029 68.3118 67.6482C67.5225 66.9922 66.0758 66.3682 63.9745 65.7789C61.8732 65.1882 60.3385 64.5429 59.3718 63.8455C57.9958 62.8629 57.3078 61.5682 57.3078 59.9695C57.3078 58.4175 57.9478 57.1549 59.2252 56.1829C60.5038 55.2122 62.1372 54.7269 64.1278 54.7269C65.4758 54.7269 66.6812 54.9855 67.7465 55.5082C68.8105 56.0269 69.6358 56.7535 70.2225 57.6829C70.8078 58.6122 71.1012 59.6495 71.1012 60.7935H69.3705C69.3705 59.4029 68.8958 58.2869 67.9492 57.4415C66.9998 56.5975 65.7265 56.1762 64.1278 56.1762C62.5745 56.1762 61.3385 56.5229 60.4185 57.2175C59.4985 57.9109 59.0385 58.8162 59.0385 59.9335C59.0385 60.9682 59.4492 61.8095 60.2785 62.4615C61.1065 63.1149 62.4305 63.6882 64.2518 64.1869C66.0758 64.6855 67.4558 65.2029 68.3945 65.7362C69.3332 66.2722 70.0412 66.9109 70.5158 67.6549C70.9892 68.3975 71.2265 69.2775 71.2265 70.2909C71.2265 71.8895 70.5865 73.1722 69.3078 74.1389C68.0305 75.1069 66.3465 75.5909 64.2518 75.5909C62.8212 75.5909 61.5078 75.3349 60.3132 74.8242C59.1172 74.3122 58.2118 73.5949 57.5932 72.6749C56.9758 71.7549 56.6665 70.7002 56.6665 69.5095H58.3825C58.3825 70.9415 58.9158 72.0709 59.9852 72.8989C61.0545 73.7269 62.4772 74.1389 64.2518 74.1389C65.8345 74.1389 67.1025 73.7909 68.0612 73.0949C69.0185 72.3975 69.4972 71.4709 69.4972 70.3175Z" fill="#A63438"/>
<path d="M80.3107 74.1821C81.4734 74.1821 82.4467 73.8541 83.232 73.1981C84.0174 72.5434 84.444 71.6941 84.508 70.6528H86.112C86.0654 71.5728 85.7774 72.4128 85.2467 73.1714C84.7174 73.9274 84.0134 74.5208 83.1347 74.9488C82.256 75.3768 81.3134 75.5914 80.3107 75.5914C78.3294 75.5914 76.76 74.9021 75.6027 73.5261C74.4467 72.1501 73.8667 70.2994 73.8667 67.9741V67.4728C73.8667 65.9848 74.128 64.6701 74.6467 63.5274C75.168 62.3821 75.9147 61.4994 76.8854 60.8768C77.8574 60.2541 78.9947 59.9421 80.2974 59.9421C81.9507 59.9421 83.316 60.4354 84.3894 61.4208C85.4627 62.4061 86.036 63.7034 86.112 65.3114H84.508C84.4334 64.1301 84.008 63.1781 83.232 62.4514C82.4547 61.7274 81.4774 61.3648 80.2974 61.3648C78.7894 61.3648 77.6214 61.9074 76.7894 62.9954C75.9574 64.0834 75.5387 65.6088 75.5387 67.5714V68.0581C75.5387 69.9848 75.9574 71.4861 76.7894 72.5648C77.6214 73.6421 78.7947 74.1821 80.3107 74.1821Z" fill="#A63438"/>
<path d="M91.5145 75.311H89.8412V60.2217H91.5145V75.311ZM89.5479 55.863C89.5479 55.5484 89.6492 55.283 89.8545 55.0657C90.0585 54.8484 90.3372 54.739 90.6919 54.739C91.0439 54.739 91.3252 54.8484 91.5358 55.0657C91.7438 55.283 91.8492 55.5484 91.8492 55.863C91.8492 56.1764 91.7438 56.4404 91.5358 56.6524C91.3252 56.8657 91.0439 56.9724 90.6919 56.9724C90.3372 56.9724 90.0585 56.8657 89.8545 56.6524C89.6492 56.4404 89.5479 56.1764 89.5479 55.863Z" fill="#A63438"/>
<path d="M101.783 61.3643C100.528 61.3643 99.4711 61.8243 98.6111 62.7457C97.7498 63.6657 97.2271 64.903 97.0431 66.455H106.092V66.2737C106.046 64.823 105.634 63.643 104.852 62.731C104.071 61.8203 103.048 61.3643 101.783 61.3643ZM102.09 75.591C100.808 75.591 99.6471 75.2737 98.6111 74.6417C97.5738 74.0097 96.7671 73.1283 96.1911 71.999C95.6151 70.8683 95.3271 69.6017 95.3271 68.199V67.5977C95.3271 66.1483 95.6085 64.8417 96.1711 63.6803C96.7338 62.5177 97.5178 61.6043 98.5205 60.939C99.5258 60.275 100.614 59.943 101.783 59.943C103.615 59.943 105.07 60.567 106.143 61.8163C107.216 63.0683 107.754 64.7763 107.754 66.9443V67.8777H96.9858V68.199C96.9858 69.9083 97.4778 71.335 98.4578 72.4737C99.4391 73.6123 100.672 74.1817 102.16 74.1817C103.052 74.1817 103.84 74.019 104.524 73.6937C105.208 73.3683 105.828 72.847 106.387 72.131L107.432 72.927C106.206 74.703 104.424 75.591 102.09 75.591Z" fill="#A63438"/>
<path d="M112.792 60.2212L112.848 62.8012C113.415 61.8705 114.123 61.1625 114.967 60.6732C115.813 60.1852 116.748 59.9425 117.771 59.9425C119.389 59.9425 120.593 60.3972 121.383 61.3078C122.175 62.2212 122.573 63.5865 122.583 65.4092V75.3105H120.924V65.3958C120.915 64.0465 120.628 63.0425 120.065 62.3825C119.503 61.7212 118.603 61.3918 117.368 61.3918C116.335 61.3918 115.421 61.7158 114.627 62.3625C113.831 63.0078 113.243 63.8798 112.863 64.9772V75.3105H111.203V60.2212H112.792Z" fill="#A63438"/>
<path d="M132.67 74.1821C133.834 74.1821 134.806 73.8541 135.593 73.1981C136.378 72.5434 136.804 71.6941 136.868 70.6528H138.473C138.426 71.5728 138.138 72.4128 137.608 73.1714C137.078 73.9274 136.374 74.5208 135.496 74.9488C134.616 75.3768 133.676 75.5914 132.67 75.5914C130.69 75.5914 129.121 74.9021 127.964 73.5261C126.805 72.1501 126.228 70.2994 126.228 67.9741V67.4728C126.228 65.9848 126.488 64.6701 127.008 63.5274C127.53 62.3821 128.276 61.4994 129.248 60.8768C130.22 60.2541 131.356 59.9421 132.656 59.9421C134.312 59.9421 135.677 60.4354 136.75 61.4208C137.825 62.4061 138.398 63.7034 138.473 65.3114H136.868C136.794 64.1301 136.368 63.1781 135.593 62.4514C134.816 61.7274 133.837 61.3648 132.656 61.3648C131.15 61.3648 129.981 61.9074 129.149 62.9954C128.316 64.0834 127.901 65.6088 127.901 67.5714V68.0581C127.901 69.9848 128.316 71.4861 129.149 72.5648C129.981 73.6421 131.156 74.1821 132.67 74.1821Z" fill="#A63438"/>
<path d="M147.543 61.3643C146.287 61.3643 145.23 61.8243 144.369 62.7457C143.51 63.6657 142.987 64.903 142.801 66.455H151.853V66.2737C151.806 64.823 151.393 63.643 150.611 62.731C149.831 61.8203 148.809 61.3643 147.543 61.3643ZM147.85 75.591C146.567 75.591 145.406 75.2737 144.369 74.6417C143.333 74.0097 142.526 73.1283 141.951 71.999C141.373 70.8683 141.086 69.6017 141.086 68.199V67.5977C141.086 66.1483 141.367 64.8417 141.93 63.6803C142.491 62.5177 143.275 61.6043 144.279 60.939C145.283 60.275 146.371 59.943 147.543 59.943C149.374 59.943 150.827 60.567 151.902 61.8163C152.975 63.0683 153.513 64.7763 153.513 66.9443V67.8777H142.745V68.199C142.745 69.9083 143.237 71.335 144.215 72.4737C145.198 73.6123 146.431 74.1817 147.919 74.1817C148.811 74.1817 149.601 74.019 150.283 73.6937C150.967 73.3683 151.587 72.847 152.146 72.131L153.191 72.927C151.963 74.703 150.183 75.591 147.85 75.591Z" fill="#A63438"/>
<path d="M23.236 9.86901V2.12234H0V40.8503H23.236V33.1037H7.74533V25.3597H15.4907V17.6143H7.74533V9.86901H23.236Z" fill="#A63438"/>
<path d="M23.2358 17.6143V25.3597H30.9812V40.8503H38.7265V17.6143H23.2358Z" fill="#A63438"/>
<path d="M27.561 7.70621C27.561 10.7902 30.061 13.2889 33.145 13.2889C36.2277 13.2889 38.7264 10.7902 38.7264 7.70621C38.7264 4.62221 36.2277 2.12355 33.145 2.12355C30.061 2.12355 27.561 4.62221 27.561 7.70621Z" fill="#A63438"/>
<path d="M62.2673 2.12743L76.5486 36.3021L90.8833 2.12743H95.2446V40.8501H91.9739V23.9888L92.2393 6.7021L77.8259 40.8501H75.2979L60.9366 6.83543L61.2033 23.8821V40.8501H57.9326V2.12743H62.2673Z" fill="#A63438"/>
<path d="M106.516 40.8497H103.324V12.0737H106.516V40.8497ZM102.767 3.76307C102.767 3.1644 102.96 2.65773 103.352 2.2444C103.741 1.82973 104.272 1.62306 104.947 1.62306C105.62 1.62306 106.157 1.82973 106.555 2.2444C106.953 2.65773 107.155 3.1644 107.155 3.76307C107.155 4.36307 106.953 4.8644 106.555 5.26973C106.157 5.67506 105.62 5.87773 104.947 5.87773C104.272 5.87773 103.741 5.67506 103.352 5.26973C102.96 4.8644 102.767 4.36307 102.767 3.76307Z" fill="#A63438"/>
<path d="M117.646 12.0741L117.753 16.9941C118.833 15.2208 120.181 13.8701 121.794 12.9381C123.409 12.0074 125.189 11.5421 127.141 11.5421C130.225 11.5421 132.522 12.4114 134.029 14.1488C135.536 15.8861 136.298 18.4928 136.316 21.9674V40.8501H133.152V21.9408C133.134 19.3701 132.588 17.4554 131.514 16.1968C130.442 14.9368 128.728 14.3088 126.369 14.3088C124.401 14.3088 122.66 14.9248 121.144 16.1568C119.628 17.3888 118.506 19.0514 117.778 21.1434V40.8501H114.614V12.0741H117.646Z" fill="#A63438"/>
<path d="M145.929 26.7544C145.929 30.4237 146.664 33.3197 148.137 35.437C149.608 37.557 151.681 38.6157 154.358 38.6157C158.278 38.6157 161.06 36.8877 162.709 33.429V19.9197C161.06 16.1784 158.296 14.309 154.412 14.309C151.734 14.309 149.652 15.3584 148.164 17.4597C146.673 19.5597 145.929 22.6584 145.929 26.7544ZM142.71 26.1957C142.71 21.7277 143.706 18.169 145.704 15.5184C147.697 12.8677 150.404 11.5424 153.826 11.5424C157.71 11.5424 160.67 13.0757 162.709 16.1437V0.00104515H165.873V40.849H162.896L162.762 37.0197C160.724 39.9277 157.726 41.381 153.773 41.381C150.457 41.381 147.786 40.0477 145.757 37.3784C143.725 34.7104 142.71 31.1077 142.71 26.5677V26.1957Z" fill="#A63438"/>
<path d="M190.668 33.5363C190.668 31.9589 190.035 30.6896 188.767 29.7323C187.499 28.7749 185.59 28.0269 183.035 27.4856C180.483 26.9443 178.502 26.3243 177.092 25.6243C175.683 24.9243 174.638 24.0683 173.954 23.0576C173.271 22.0469 172.93 20.8243 172.93 19.3869C172.93 17.1189 173.878 15.2429 175.776 13.7629C177.671 12.2829 180.102 11.5416 183.062 11.5416C186.271 11.5416 188.847 12.3363 190.787 13.9229C192.73 15.5096 193.699 17.5789 193.699 20.1323H190.508C190.508 18.4483 189.804 17.0469 188.395 15.9296C186.984 14.8136 185.207 14.2549 183.062 14.2549C180.97 14.2549 179.291 14.7203 178.023 15.6509C176.755 16.5816 176.12 17.7923 176.12 19.2816C176.12 20.7176 176.648 21.8309 177.704 22.6189C178.759 23.4069 180.682 24.1309 183.474 24.7869C186.267 25.4429 188.36 26.1429 189.751 26.8869C191.143 27.6323 192.175 28.5269 192.85 29.5723C193.524 30.6203 193.86 31.8869 193.86 33.3763C193.86 35.8056 192.88 37.7469 190.92 39.2003C188.963 40.6549 186.404 41.3816 183.248 41.3816C179.898 41.3816 177.18 40.5696 175.098 38.9483C173.015 37.3256 171.972 35.2736 171.972 32.7909H175.164C175.288 34.6523 176.072 36.1029 177.518 37.1403C178.962 38.1763 180.872 38.6949 183.248 38.6949C185.466 38.6949 187.255 38.2069 188.62 37.2323C189.986 36.2589 190.668 35.0256 190.668 33.5363Z" fill="#A63438"/>
<path d="M220.141 26.1958C220.141 22.5265 219.389 19.6278 217.882 17.4998C216.373 15.3718 214.273 14.3078 211.58 14.3078C209.628 14.3078 207.952 14.7785 206.553 15.7171C205.152 16.6585 204.08 18.0225 203.334 19.8131V33.6158C204.096 35.2651 205.186 36.5238 206.606 37.3918C208.024 38.2611 209.698 38.6958 211.632 38.6958C214.308 38.6958 216.397 37.6265 217.894 35.4905C219.392 33.3545 220.141 30.2558 220.141 26.1958ZM223.333 26.7545C223.333 31.2398 222.34 34.7998 220.354 37.4318C218.369 40.0651 215.71 41.3811 212.377 41.3811C208.44 41.3811 205.426 39.9985 203.334 37.2331V51.9131H200.169V12.0745H203.121L203.281 16.1425C205.356 13.0758 208.362 11.5425 212.297 11.5425C215.737 11.5425 218.436 12.8451 220.394 15.4518C222.354 18.0571 223.333 21.6745 223.333 26.3025V26.7545Z" fill="#A63438"/>
<path d="M237.729 38.563C239.857 38.563 241.757 38.0484 243.432 37.019C245.108 35.9924 246.327 34.6177 247.089 32.8977V26.5684H241.399C238.225 26.6044 235.741 27.1844 233.952 28.3097C232.161 29.4364 231.267 30.983 231.267 32.951C231.267 34.5644 231.864 35.903 233.061 36.967C234.259 38.031 235.813 38.563 237.729 38.563ZM247.728 40.8497C247.408 39.9457 247.205 38.607 247.116 36.8337C246 38.287 244.576 39.4097 242.847 40.1977C241.12 40.9857 239.289 41.3817 237.356 41.3817C234.591 41.3817 232.352 40.611 230.64 39.0684C228.929 37.5244 228.075 35.575 228.075 33.2177C228.075 30.415 229.24 28.2004 231.572 26.5684C233.903 24.9377 237.152 24.1217 241.319 24.1217H247.089V20.8497C247.089 18.7937 246.456 17.1764 245.188 15.9977C243.92 14.8177 242.071 14.2284 239.644 14.2284C237.427 14.2284 235.591 14.7964 234.137 15.9297C232.684 17.0644 231.956 18.4297 231.956 20.0257L228.765 19.999C228.765 17.7124 229.829 15.731 231.956 14.0564C234.084 12.3804 236.7 11.5417 239.804 11.5417C243.012 11.5417 245.541 12.3444 247.396 13.9497C249.248 15.5537 250.201 17.7924 250.255 20.6644V34.2817C250.255 37.0644 250.548 39.147 251.131 40.531V40.8497H247.728Z" fill="#A63438"/>
<path d="M271.817 14.7869C271.145 14.6629 270.426 14.6002 269.662 14.6002C267.677 14.6002 265.998 15.1549 264.622 16.2629C263.249 17.3709 262.269 18.9802 261.684 21.0895V40.8495H258.52V12.0735H261.633L261.684 16.6482C263.369 13.2442 266.073 11.5415 269.796 11.5415C270.684 11.5415 271.382 11.6575 271.897 11.8882L271.817 14.7869Z" fill="#A63438"/>
<path d="M283.134 26.3546L279.491 29.8653V40.8493H276.299V-3.1735e-05H279.491V26.1426L282.495 22.8986L293.507 12.0746H297.522L285.315 24.2013L298.586 40.8493H294.782L283.134 26.3546Z" fill="#A63438"/>
</svg>
