<svg xmlns="http://www.w3.org/2000/svg" width="130" height="30.765" viewBox="0 0 130 30.765">
    <defs>
        <style>
            .cls-1{fill:#a01e21}
        </style>
    </defs>
    <g id="EI-FULL" transform="translate(-101 2918)">
        <path id="Path_17636" d="M4798.856-2915.334v2.668l-.063-.091a3.48 3.48 0 0 0-.744-.771 3.289 3.289 0 0 0-1.656-.625 3.485 3.485 0 0 0-2.327.5 2.857 2.857 0 0 0-.46.375 4.691 4.691 0 0 0-1.281 2.779 9.693 9.693 0 0 0-.027 2.252 4.7 4.7 0 0 0 1.567 3.252 3.235 3.235 0 0 0 2.269.683 3.655 3.655 0 0 0 1.566-.392 3.213 3.213 0 0 0 1.107-.946.563.563 0 0 1 .07-.085s.007.021.007.046c0 .1.034 1.155.039 1.177v.025h.976V-2918h-1.041zm-2.4 2.087a2.653 2.653 0 0 1 1.722.806 3.226 3.226 0 0 1 .575.829l.1.2v4.475l-.068.131a2.749 2.749 0 0 1-1.934 1.51 2.87 2.87 0 0 1-.738.065 2.269 2.269 0 0 1-.727-.076 2.435 2.435 0 0 1-1.569-1.324 5.714 5.714 0 0 1-.509-2.82 5.593 5.593 0 0 1 .495-2.362 2.664 2.664 0 0 1 .9-1.055 2.394 2.394 0 0 1 1.119-.381c.078-.011.537-.007.639.002z" class="cls-1" transform="translate(-4640.331)"/>
        <path id="Path_17637" d="M11983-2911.244v6.756h1.053V-2918H11983z" class="cls-1" transform="translate(-11753.053)"/>
        <path id="Path_17638" d="M8897.131-2867.646a.776.776 0 0 0-.306.152.738.738 0 0 0-.192.3.537.537 0 0 0-.032.239.6.6 0 0 0 .029.235.7.7 0 0 0 .789.46.661.661 0 0 0 .438-.208.72.72 0 0 0 0-.976.62.62 0 0 0-.28-.177.62.62 0 0 0-.229-.034.993.993 0 0 0-.217.009z" class="cls-1" transform="translate(-8700.148 -49.795)"/>
        <path id="Path_17639" d="M101-2838.062v14.938h17.928v-5.969H106.98v-5.98h5.969v-5.98h-5.969v-5.969h11.948V-2853H101z" class="cls-1" transform="translate(0 -64.295)"/>
        <path id="Path_17640" d="M2064.45-2852.883a4.316 4.316 0 0 0-2.426.958 5.89 5.89 0 0 0-.536.522 4.308 4.308 0 0 0-.586 4.76 4.308 4.308 0 0 0 3.966 2.36 4.289 4.289 0 0 0 2.628-.988 5.527 5.527 0 0 0 .6-.614 4.343 4.343 0 0 0 .814-1.619 3.861 3.861 0 0 0 .131-1.078 3.882 3.882 0 0 0-.152-1.161 4.309 4.309 0 0 0-4.439-3.14z" class="cls-1" transform="translate(-1938.175 -64.4)"/>
        <path id="Path_17641" d="M3950-2846.6v6.4h7.965v-.911h-6.88v-5.22H3957.07v-.912H3951.085v-4.829h6.837v-.928H3950z" class="cls-1" transform="translate(-3807.229 -64.295)"/>
        <path id="Path_17642" d="M8270.747-2772.784v1.215H8269v.868h1.747v3.231c0 2.026 0 3.3.012 3.416a2.879 2.879 0 0 0 .41 1.451 1.676 1.676 0 0 0 1.3.716 6.381 6.381 0 0 0 .81 0 2.59 2.59 0 0 0 .654-.132c.009-.009-.021-.806-.03-.842a.531.531 0 0 0-.177.013 2.63 2.63 0 0 1-1.19-.012 1.022 1.022 0 0 1-.662-.831c-.063-.284-.06-.108-.06-3.707v-3.3h1.964v-.868h-1.964V-2774h-1.064z" class="cls-1" transform="translate(-8079.358 -142.437)"/>
        <path id="Path_17643" d="M6603.239-2565.654a3.687 3.687 0 0 0-2.8 1.47 5.008 5.008 0 0 0-.881 2.268 6.3 6.3 0 0 0-.061 1.167 6.737 6.737 0 0 0 .05 1.11 5.177 5.177 0 0 0 .6 1.923 5.423 5.423 0 0 0 .367.542 5.06 5.06 0 0 0 .5.52 3.56 3.56 0 0 0 1.908.821 4.145 4.145 0 0 0 2.417-.374 3.192 3.192 0 0 0 .929-.656 2.985 2.985 0 0 0 .63-.863 2.932 2.932 0 0 0 .287-.951c.008-.074.016-.155.016-.18v-.046h-1.001l-.014.12a2.181 2.181 0 0 1-.9 1.569 2.643 2.643 0 0 1-1.158.485 3.7 3.7 0 0 1-.96.028 2.561 2.561 0 0 1-1.947-1.161 4.419 4.419 0 0 1-.664-2.289c-.017-.3-.007-1.109.016-1.358a4.181 4.181 0 0 1 .765-2.229 3.237 3.237 0 0 1 .431-.448 2.672 2.672 0 0 1 1.671-.576 2.794 2.794 0 0 1 1.356.268 2.5 2.5 0 0 1 1.238 1.373 3.258 3.258 0 0 1 .163.756l.007.084h1.009l-.007-.118a3.484 3.484 0 0 0-.726-1.958 4.366 4.366 0 0 0-.55-.544 3.567 3.567 0 0 0-1.642-.706 5.578 5.578 0 0 0-1.049-.047z" class="cls-1" transform="translate(-6427.976 -348.515)"/>
        <path id="Path_17644" d="M7454.061-2565.8a4.072 4.072 0 0 0-2.073.679 3.426 3.426 0 0 0-.919.938 2.193 2.193 0 0 0-.323 1.073v.1h.231c.128 0 .364 0 .525.008l.3.007v-.069a1.609 1.609 0 0 1 .168-.65 2.139 2.139 0 0 1 .859-.845 2.867 2.867 0 0 1 1.067-.335 5.63 5.63 0 0 1 .921 0 2.455 2.455 0 0 1 1.211.441 1.915 1.915 0 0 1 .712 1.12 3.786 3.786 0 0 1 .062 1v.686h-1.251a11.3 11.3 0 0 0-1.751.057 3.986 3.986 0 0 0-2.8 1.387 2.6 2.6 0 0 0-.481 1.727 2.448 2.448 0 0 0 .733 1.659 3.041 3.041 0 0 0 2.108.865 4.351 4.351 0 0 0 2.164-.447 3.716 3.716 0 0 0 .672-.423 4.654 4.654 0 0 0 .522-.513l.089-.106.007.084c0 .048.013.156.021.243a4.512 4.512 0 0 0 .153.914l.021.074h1.128v-.052a.407.407 0 0 0-.027-.122 4.4 4.4 0 0 1-.228-1.143c-.032-.364-.038-.868-.038-3.208a16.581 16.581 0 0 0-.055-2.763 2.8 2.8 0 0 0-.584-1.3 2.906 2.906 0 0 0-1.18-.83 4.805 4.805 0 0 0-1.964-.256zm2.739 6.01v1.052l-.067.134a2.982 2.982 0 0 1-1.055 1.165 3.38 3.38 0 0 1-1.53.542 2.407 2.407 0 0 1-2.072-.586 1.681 1.681 0 0 1-.5-1.018 2.584 2.584 0 0 1 .022-.593 1.611 1.611 0 0 1 .49-.885 3.841 3.841 0 0 1 2.5-.851c.1 0 .632-.01 1.191-.01h1.017z" class="cls-1" transform="translate(-7269.752 -348.372)"/>
        <path id="Path_17645" d="M9216.36-2565.773a3.985 3.985 0 0 0-3.42 2.342 5.488 5.488 0 0 0-.5 1.857 12.779 12.779 0 0 0 0 1.421 4.881 4.881 0 0 0 1.127 2.87 5.329 5.329 0 0 0 .536.519 3.845 3.845 0 0 0 1.941.811 4.532 4.532 0 0 0 2.23-.253 4.72 4.72 0 0 0 .609-.308 4 4 0 0 0 1.532-1.779 5.457 5.457 0 0 0 .471-1.8c.023-.23.027-1.164.006-1.411a5.1 5.1 0 0 0-.852-2.561 3.936 3.936 0 0 0-1.913-1.487 4.614 4.614 0 0 0-1.767-.221zm.737.916a2.85 2.85 0 0 1 1.692.858 3.191 3.191 0 0 1 .6.861 5.1 5.1 0 0 1 .475 2.6 5.37 5.37 0 0 1-.169 1.2 3.387 3.387 0 0 1-1.786 2.284 3.241 3.241 0 0 1-2.034.15 2.78 2.78 0 0 1-1.316-.774 3.707 3.707 0 0 1-.848-1.432 4.782 4.782 0 0 1-.231-1.382 5.611 5.611 0 0 1 .363-2.417 3.586 3.586 0 0 1 .963-1.332 2.77 2.77 0 0 1 1.466-.626l.141-.016a6 6 0 0 1 .687.026z" class="cls-1" transform="translate(-9012.546 -348.395)"/>
        <path id="Path_17646" d="M10190.87-2565.808a3.444 3.444 0 0 0-1.679.566 3.929 3.929 0 0 0-1.084 1.115l-.064.1-.006-.058c0-.031-.012-.37-.018-.752s-.014-.72-.019-.751v-.057h-1v9.518h1.041v-6.5l.045-.123a3.953 3.953 0 0 1 .523-.967 2.829 2.829 0 0 1 1.98-1.169 4.858 4.858 0 0 1 .821.021 1.792 1.792 0 0 1 1.617 1.522 4.332 4.332 0 0 1 .078.47c.016.128.018.461.022 3.444v3.3h1.042v-3.362a22.979 22.979 0 0 0-.072-3.882 2.674 2.674 0 0 0-1.361-2.113 2.832 2.832 0 0 0-.475-.188 4.248 4.248 0 0 0-1.391-.134z" class="cls-1" transform="translate(-9976.543 -348.36)"/>
        <path id="Path_17647" d="M11048.807-2565.778a3.892 3.892 0 0 0-2.592 1.108 2.32 2.32 0 0 0-.732 1.568l-.01.112h.24c.129 0 .369 0 .531.008l.295.007v-.08a1.658 1.658 0 0 1 .639-1.215 3 3 0 0 1 2.2-.617 2.64 2.64 0 0 1 1.307.4 2.074 2.074 0 0 1 .5.5 2 2 0 0 1 .291.689 3.913 3.913 0 0 1 .061 1l.006.675h-1.252a11.316 11.316 0 0 0-1.746.058 4.519 4.519 0 0 0-2.312.873 2.913 2.913 0 0 0-.609.674 2.763 2.763 0 0 0-.316 1.973 2.509 2.509 0 0 0 .426.958 2.933 2.933 0 0 0 2.123 1.141 4.388 4.388 0 0 0 2.117-.3 3.76 3.76 0 0 0 1.469-1.052l.105-.124.008.124a5.236 5.236 0 0 0 .166 1.108l.027.084h1.129v-.047a.885.885 0 0 0-.045-.17 4.834 4.834 0 0 1-.23-1.275c-.008-.106-.014-.956-.02-2.816a15.67 15.67 0 0 0-.07-3.055 2.783 2.783 0 0 0-2.191-2.191 5.25 5.25 0 0 0-1.515-.118zm2.736 6.007v1.048l-.078.154a3 3 0 0 1-1.045 1.148 3.44 3.44 0 0 1-1.736.563 2.274 2.274 0 0 1-1.975-.717 1.666 1.666 0 0 1-.4-.994 1.723 1.723 0 0 1 .818-1.629 3.742 3.742 0 0 1 1.582-.55 10.825 10.825 0 0 1 1.814-.07h1.016z" class="cls-1" transform="translate(-10825.479 -348.39)"/>
        <path id="Path_17648" d="M5742-2546.845c0 1.924 0 3.229.011 3.346a3.864 3.864 0 0 0 .658 2.139 3.151 3.151 0 0 0 .438.455 3.311 3.311 0 0 0 2.268.6 4.015 4.015 0 0 0 1.684-.4 3.032 3.032 0 0 0 1.049-.9l.053-.073.006.4c0 .222.008.491.009.6v.2h1.021V-2550h-1.053v6.889l-.037.107a2.57 2.57 0 0 1-.84 1.206 3.01 3.01 0 0 1-1.613.566 6.147 6.147 0 0 1-.723 0 1.837 1.837 0 0 1-1.578-1.063 3.274 3.274 0 0 1-.274-1.031c-.017-.135-.02-.4-.024-3.408l-.006-3.261h-1.046z" class="cls-1" transform="translate(-5579.782 -364.006)"/>
        <path id="Path_17649" d="M8913-2545.241v4.759h1.053V-2550H8913z" class="cls-1" transform="translate(-8716.369 -364.006)"/>
        <path id="Path_17650" d="M1753-1749.01v2.99h5.969v11.948h5.98V-1752H1753z" class="cls-1" transform="translate(-1634.072 -1153.346)"/>
        <path id="Path_17651" d="M5179.8-1294.771a.671.671 0 0 0-.589.661.672.672 0 0 0 .5.712 1.211 1.211 0 0 0 .443 0 .692.692 0 0 0 .485-.487 1.011 1.011 0 0 0 0-.375.715.715 0 0 0-.839-.511z" class="cls-1" transform="translate(-5023.101 -1605.604)"/>
        <path id="Path_17652" d="M6055.383-1294.561a.663.663 0 0 0-.515.378.7.7 0 0 0-.067.322.693.693 0 0 0 .08.345.656.656 0 0 0 .421.33 1.218 1.218 0 0 0 .434 0 .678.678 0 0 0 .486-.468.7.7 0 0 0 .019-.207.6.6 0 0 0-.025-.228.642.642 0 0 0-.175-.279.641.641 0 0 0-.31-.177 1.193 1.193 0 0 0-.348-.016z" class="cls-1" transform="translate(-5889.188 -1605.815)"/>
        <path id="Path_17653" d="M7761.772-1294.577a.632.632 0 0 0-.407.193.657.657 0 0 0-.208.472.679.679 0 0 0 .492.71 1 1 0 0 0 .172.024.694.694 0 0 0 .751-.467.6.6 0 0 0 .029-.223.575.575 0 0 0-.024-.217.7.7 0 0 0-.181-.3.626.626 0 0 0-.31-.172 1.264 1.264 0 0 0-.314-.02z" class="cls-1" transform="translate(-7577.025 -1605.802)"/>
        <path id="Path_17654" d="M3950-1272.6v6.4h1.085v-12.8H3950z" class="cls-1" transform="translate(-3807.229 -1621.213)"/>
        <path id="Path_17655" d="M5458.758-1199.779v1.221H5457v.857h1.752l.006 3.4c.005 3.053.008 3.415.023 3.527a3.9 3.9 0 0 0 .09.473 1.682 1.682 0 0 0 1.3 1.359 2.444 2.444 0 0 0 .684.062 3.373 3.373 0 0 0 .969-.1l.123-.035-.005-.066c0-.036-.014-.228-.024-.424s-.02-.359-.021-.362-.1.009-.214.024a4.029 4.029 0 0 1-.644.054c-.725 0-1.072-.31-1.2-1.068l-.024-.136v-6.712h1.964v-.857h-1.964V-1201h-1.052z" class="cls-1" transform="translate(-5297.875 -1698.367)"/>
        <path id="Path_17656" d="M7157.747-1199.779v1.221H7156v.857h1.747v3.291c0 2.163 0 3.344.011 3.443a2.666 2.666 0 0 0 .492 1.488 1.729 1.729 0 0 0 1.185.593 6.4 6.4 0 0 0 .928-.007 1.564 1.564 0 0 0 .575-.136c0-.058-.045-.83-.049-.833s-.095.009-.207.023a3.992 3.992 0 0 1-.645.054 1.7 1.7 0 0 1-.3-.02c-.541-.1-.805-.418-.91-1.1-.018-.116-.019-.352-.021-3.46v-3.334h1.976v-.857h-1.982V-1201h-1.052z" class="cls-1" transform="translate(-6978.437 -1698.367)"/>
        <path id="Path_17657" d="M4297.788-991.79a3.519 3.519 0 0 0-2.637 1.619c-.076.113-.108.154-.108.136l-.017-.7c-.009-.372-.017-.723-.017-.785v-.111H4294v9.518h1.053v-6.534l.061-.154a3.554 3.554 0 0 1 .8-1.251 2.705 2.705 0 0 1 1.619-.82 4.992 4.992 0 0 1 .813.005 2.164 2.164 0 0 1 .949.333 2.256 2.256 0 0 1 .826 1.8c.006.1.011 1.229.011 3.384v3.237h1.054v-3.312a29.061 29.061 0 0 0-.057-3.791 3.1 3.1 0 0 0-.831-1.867 1.974 1.974 0 0 0-.33-.266 3 3 0 0 0-1.421-.444 7.256 7.256 0 0 0-.759.003z" class="cls-1" transform="translate(-4147.497 -1905.296)"/>
        <path id="Path_17658" d="M6365.653-991.645a3.861 3.861 0 0 0-2.514 1.129 2.5 2.5 0 0 0-.483.668 2.35 2.35 0 0 0-.227.926v.051l.1.008c.054 0 .29.006.525.006.411 0 .427 0 .427-.021a1.826 1.826 0 0 1 .121-.574 2.232 2.232 0 0 1 1.37-1.161 2.857 2.857 0 0 1 .976-.151 3.428 3.428 0 0 1 .985.094 1.938 1.938 0 0 1 1.509 1.555 4.629 4.629 0 0 1 .05.954l.005.66h-1.083c-1.074 0-1.339.006-1.687.039a4.827 4.827 0 0 0-2.436.818 2.522 2.522 0 0 0-1.063 1.739 3.667 3.667 0 0 0-.018.66 2.442 2.442 0 0 0 .245.906 2.337 2.337 0 0 0 .516.705 2.971 2.971 0 0 0 1.8.816 6.063 6.063 0 0 0 .993 0 4.19 4.19 0 0 0 2.126-.858 4.465 4.465 0 0 0 .508-.5c.072-.087.09-.1.1-.087s.013.107.019.215a4.987 4.987 0 0 0 .151.971l.03.1h1.133v-.047a.573.573 0 0 0-.034-.139 4.159 4.159 0 0 1-.211-.97c-.041-.384-.041-.4-.05-3.125 0-1.475-.011-2.7-.014-2.724l-.029-.192a2.7 2.7 0 0 0-.719-1.525 3.274 3.274 0 0 0-2.09-.943 9.553 9.553 0 0 0-1.031-.003zm2.843 6v1.043l-.078.152a2.966 2.966 0 0 1-.991 1.118 3.419 3.419 0 0 1-1.6.586 5.358 5.358 0 0 1-.857-.005 2.492 2.492 0 0 1-.694-.21 1.861 1.861 0 0 1-.934-1.037 1.967 1.967 0 0 1-.044-1 1.877 1.877 0 0 1 1.089-1.257 4.413 4.413 0 0 1 1.592-.408 12.669 12.669 0 0 1 1.409-.026h1.1z" class="cls-1" transform="translate(-6193.255 -1905.442)"/>
        <path id="Path_17659" d="M8835.757-991.68a3.938 3.938 0 0 0-2.821 1.774 5.28 5.28 0 0 0-.84 2.626c-.018.272-.008 1.18.018 1.395a4.937 4.937 0 0 0 .788 2.252 4.026 4.026 0 0 0 2.7 1.741 3.79 3.79 0 0 0 .647.058 3.867 3.867 0 0 0 3.386-1.563c.067-.091.076-.11.064-.123s-.156-.122-.33-.253l-.314-.24-.027.036a4.215 4.215 0 0 1-.6.606 2.98 2.98 0 0 1-1.54.623 5.069 5.069 0 0 1-.791.017 3.023 3.023 0 0 1-.979-.251 3.485 3.485 0 0 1-1.766-2.047 4.469 4.469 0 0 1-.226-1.391l-.007-.273h6.8l-.007-.53a6.542 6.542 0 0 0-.053-.957 4.183 4.183 0 0 0-1.151-2.541 3.312 3.312 0 0 0-1.978-.944 6.17 6.17 0 0 0-.973-.015zm.77.9a2.508 2.508 0 0 1 1.991 1.5 3.9 3.9 0 0 1 .356 1.549l.008.139h-5.711v-.027a3.775 3.775 0 0 1 .062-.391 3.787 3.787 0 0 1 .989-1.988 2.629 2.629 0 0 1 2.008-.8c.095-.002.229.01.296.018z" class="cls-1" transform="translate(-8636.334 -1905.402)"/>
        <path id="Path_17660" d="M9676.8-991.748a4.75 4.75 0 0 0-.814.131 3.285 3.285 0 0 0-1.469.8 3.044 3.044 0 0 0-.333.4 2.282 2.282 0 0 0-.353.966 3.636 3.636 0 0 0 .006.626 2.033 2.033 0 0 0 .218.708 1.762 1.762 0 0 0 .352.468 2.665 2.665 0 0 0 .771.541 8.173 8.173 0 0 0 1.926.614 7.851 7.851 0 0 1 .9.239 3.277 3.277 0 0 1 1.221.662 1.614 1.614 0 0 1 .4.648 1.705 1.705 0 0 1 .018.829 1.63 1.63 0 0 1-.795.961 3.1 3.1 0 0 1-1.615.378 3.51 3.51 0 0 1-1.517-.293 1.868 1.868 0 0 1-1.145-1.544l-.013-.111h-1.058v.114a2.4 2.4 0 0 0 .7 1.621 3.791 3.791 0 0 0 2.431 1.075c.092.01.3.021.466.024a4.171 4.171 0 0 0 2.731-.765 2.267 2.267 0 0 0 .889-1.537 3.862 3.862 0 0 0 0-.655 2.117 2.117 0 0 0-.472-1.154 3.321 3.321 0 0 0-1.323-.887 12.353 12.353 0 0 0-1.741-.518 4.728 4.728 0 0 1-1.866-.75 1.264 1.264 0 0 1-.431-.8 2.121 2.121 0 0 1 .013-.553 1.577 1.577 0 0 1 .939-1.09 3.437 3.437 0 0 1 2.056-.19 2.415 2.415 0 0 1 1.411.865 2.008 2.008 0 0 1 .254.509 1.725 1.725 0 0 1 .065.415v.077h1.064l-.007-.106a2.624 2.624 0 0 0-.281-1.122 2.918 2.918 0 0 0-1.53-1.314 4.189 4.189 0 0 0-1.1-.264c-.136-.015-.849-.029-.968-.018z" class="cls-1" transform="translate(-9468.615 -1905.344)"/>
        <path id="Path_17661" d="M5196-971.241v4.759h1.053V-976H5196z" class="cls-1" transform="translate(-5039.707 -1920.925)"/>
        <path id="Path_17662" d="M6072-971.241v4.759h1.052V-976H6072z" class="cls-1" transform="translate(-5906.201 -1920.925)"/>
        <path id="Path_17663" d="M7778-971.241v4.759h1.053V-976H7778z" class="cls-1" transform="translate(-7593.687 -1920.925)"/>
        <path id="Path_17664" d="M8027.354-975.982c0 .011.807 2.151 1.785 4.757l1.777 4.737h.857l1.774-4.757 1.775-4.755h-1.078c-.003 0-.635 1.759-1.4 3.9-1.635 4.558-1.487 4.147-1.5 4.136s-.661-1.817-1.461-4.026l-1.452-4.01h-.541c-.511 0-.54 0-.536.018z" class="cls-1" transform="translate(-7840.334 -1920.925)"/>
    </g>
</svg>
