<svg width="274" height="70" viewBox="0 0 274 70" fill="none" xmlns="http://www.w3.org/2000/svg">
<path d="M55.2695 50.4331L62.1349 66.8651L69.0282 50.4331H71.1269V69.0531H69.5535V60.9451L69.6815 52.6331L62.7495 69.0531H61.5349L54.6309 52.6971L54.7575 60.8945V69.0531H53.1855V50.4331H55.2695Z" fill="#A63438"/>
<path d="M79.5949 67.9526C80.6189 67.9526 81.5323 67.7046 82.3389 67.2113C83.1443 66.7166 83.7309 66.0553 84.0963 65.2286V62.1859H81.3603C79.8349 62.2033 78.6403 62.4806 77.7803 63.0233C76.9176 63.5646 76.4883 64.3086 76.4883 65.2553C76.4883 66.0313 76.7763 66.6739 77.3509 67.1859C77.9269 67.6979 78.6749 67.9526 79.5949 67.9526ZM84.4029 69.0526C84.2496 68.6179 84.1523 67.9753 84.1096 67.1219C83.5723 67.8206 82.8883 68.3606 82.0576 68.7393C81.2269 69.1179 80.3443 69.3086 79.4163 69.3086C78.0856 69.3086 77.0109 68.9366 76.1869 68.1966C75.3643 67.4539 74.9536 66.5166 74.9536 65.3819C74.9536 64.0353 75.5136 62.9699 76.6349 62.1859C77.7563 61.4019 79.3189 61.0086 81.3216 61.0086H84.0963V59.4353C84.0963 58.4473 83.7909 57.6699 83.1816 57.1019C82.5723 56.5353 81.6829 56.2526 80.5149 56.2526C79.4509 56.2526 78.5669 56.5259 77.8696 57.0713C77.1709 57.6166 76.8203 58.2726 76.8203 59.0393L75.2869 59.0273C75.2869 57.9273 75.7976 56.9753 76.8203 56.1686C77.8443 55.3633 79.1016 54.9606 80.5923 54.9606C82.1349 54.9606 83.3523 55.3459 84.2429 56.1179C85.1336 56.8899 85.5923 57.9659 85.6189 59.3473V65.8939C85.6189 67.2326 85.7589 68.2339 86.0403 68.8993V69.0526H84.4029Z" fill="#A63438"/>
<path d="M92.2602 51.6739V55.2166H95.1228V56.4699H92.2602V65.7006C92.2602 66.4686 92.3988 67.0393 92.6762 67.4153C92.9522 67.7913 93.4148 67.9793 94.0628 67.9793C94.3188 67.9793 94.7322 67.9353 95.3028 67.8513L95.3668 69.0926C94.9655 69.2366 94.4202 69.3086 93.7308 69.3086C92.6815 69.3086 91.9188 69.0033 91.4415 68.3939C90.9628 67.7846 90.7255 66.8873 90.7255 65.7019V56.4699H88.1802V55.2166H90.7255V51.6739H92.2602Z" fill="#A63438"/>
<path d="M100.001 57.5567C100.504 56.7301 101.147 56.0901 101.931 55.6394C102.716 55.1874 103.573 54.9607 104.501 54.9607C105.985 54.9607 107.089 55.3781 107.813 56.2141C108.539 57.0487 108.905 58.3034 108.915 59.9727V69.0527H107.392V59.9607C107.383 58.7247 107.121 57.8047 106.605 57.1981C106.089 56.5927 105.264 56.2901 104.132 56.2901C103.185 56.2901 102.348 56.5861 101.619 57.1794C100.889 57.7714 100.351 58.5714 100.001 59.5767V69.0527H98.4785V49.4114H100.001V57.5567Z" fill="#A63438"/>
<path d="M121.322 65.5359C121.322 64.7773 121.017 64.1679 120.407 63.7079C119.798 63.2466 118.879 62.8879 117.653 62.6266C116.425 62.3666 115.471 62.0679 114.794 61.7306C114.117 61.3959 113.614 60.9839 113.286 60.4986C112.958 60.0106 112.794 59.4239 112.794 58.7319C112.794 57.6413 113.249 56.7399 114.162 56.0279C115.073 55.3173 116.241 54.9599 117.665 54.9599C119.207 54.9599 120.447 55.3413 121.379 56.1053C122.313 56.8679 122.781 57.8626 122.781 59.0906H121.245C121.245 58.2813 120.906 57.6079 120.23 57.0706C119.551 56.5333 118.697 56.2653 117.665 56.2653C116.659 56.2653 115.85 56.4893 115.241 56.9359C114.631 57.3839 114.327 57.9653 114.327 58.6813C114.327 59.3719 114.581 59.9066 115.089 60.2866C115.595 60.6666 116.521 61.0133 117.863 61.3293C119.206 61.6439 120.211 61.9813 120.881 62.3399C121.55 62.6973 122.047 63.1266 122.371 63.6306C122.694 64.1333 122.857 64.7426 122.857 65.4586C122.857 66.6266 122.386 67.5613 121.445 68.2599C120.502 68.9586 119.273 69.3079 117.754 69.3079C116.143 69.3079 114.837 68.9186 113.835 68.1386C112.834 67.3573 112.333 66.3719 112.333 65.1773H113.867C113.926 66.0719 114.303 66.7706 114.999 67.2693C115.693 67.7679 116.613 68.0159 117.754 68.0159C118.821 68.0159 119.682 67.7826 120.338 67.3133C120.994 66.8439 121.322 66.2519 121.322 65.5359Z" fill="#A63438"/>
<path d="M21.3053 9.04832V1.94566H0V37.455H21.3053V30.3523H7.10267V23.2523H14.204V16.151H7.10267V9.04832H21.3053Z" fill="#A63438"/>
<path d="M21.3052 16.1504V23.2518H28.4065V37.4558H35.5078V16.1504H21.3052Z" fill="#A63438"/>
<path d="M25.2715 7.06526C25.2715 9.89326 27.5635 12.1839 30.3915 12.1839C33.2182 12.1839 35.5088 9.89326 35.5088 7.06526C35.5088 4.23726 33.2182 1.9466 30.3915 1.9466C27.5635 1.9466 25.2715 4.23726 25.2715 7.06526Z" fill="#A63438"/>
<path d="M57.0933 1.95059L70.188 33.2839L83.3307 1.95059H87.3307V37.4546H84.3307V21.9946L84.5746 6.14526L71.3587 37.4546H69.0413L55.8733 6.26659L56.1187 21.8973V37.4546H53.1187V1.95059H57.0933Z" fill="#A63438"/>
<path d="M97.6638 37.4547H94.7384V11.0707H97.6638V37.4547ZM94.2251 3.44941C94.2251 2.90141 94.4038 2.43741 94.7624 2.05741C95.1198 1.67741 95.6078 1.48675 96.2251 1.48675C96.8424 1.48675 97.3344 1.67741 97.6998 2.05741C98.0651 2.43741 98.2504 2.90141 98.2504 3.44941C98.2504 4.00008 98.0651 4.46007 97.6998 4.83207C97.3344 5.20274 96.8424 5.38941 96.2251 5.38941C95.6078 5.38941 95.1198 5.20274 94.7624 4.83207C94.4038 4.46007 94.2251 4.00008 94.2251 3.44941Z" fill="#A63438"/>
<path d="M107.87 11.0705L107.967 15.5811C108.958 13.9558 110.194 12.7158 111.674 11.8625C113.152 11.0091 114.786 10.5825 116.575 10.5825C119.403 10.5825 121.508 11.3785 122.891 12.9731C124.272 14.5665 124.971 16.9558 124.987 20.1411V37.4545H122.086V20.1171C122.07 17.7598 121.568 16.0051 120.586 14.8491C119.602 13.6958 118.03 13.1185 115.867 13.1185C114.063 13.1185 112.466 13.6838 111.076 14.8131C109.687 15.9438 108.658 17.4678 107.991 19.3851V37.4545H105.088V11.0705H107.87Z" fill="#A63438"/>
<path d="M133.802 24.5307C133.802 27.8947 134.476 30.5507 135.826 32.4921C137.176 34.4347 139.077 35.4054 141.532 35.4054C145.125 35.4054 147.676 33.8214 149.189 30.6507V18.2641C147.676 14.8347 145.141 13.1187 141.581 13.1187C139.126 13.1187 137.217 14.0827 135.852 16.0081C134.484 17.9347 133.802 20.7761 133.802 24.5307ZM130.852 24.0187C130.852 19.9214 131.765 16.6587 133.596 14.2281C135.424 11.7987 137.906 10.5827 141.045 10.5827C144.605 10.5827 147.32 11.9894 149.189 14.8014V5.31242e-05H152.09V37.4547H149.36L149.237 33.9427C147.368 36.6094 144.62 37.9427 140.996 37.9427C137.956 37.9427 135.505 36.7187 133.644 34.2721C131.781 31.8254 130.852 28.5214 130.852 24.3601V24.0187Z" fill="#A63438"/>
<path d="M174.824 30.7489C174.824 29.3022 174.242 28.1395 173.08 27.2622C171.917 26.3835 170.166 25.6969 167.824 25.2009C165.484 24.7049 163.666 24.1369 162.376 23.4942C161.084 22.8529 160.125 22.0675 159.498 21.1409C158.872 20.2142 158.558 19.0929 158.558 17.7769C158.558 15.6955 159.428 13.9755 161.168 12.6195C162.906 11.2622 165.134 10.5822 167.849 10.5822C170.792 10.5822 173.153 11.3102 174.933 12.7649C176.713 14.2209 177.602 16.1182 177.602 18.4595H174.677C174.677 16.9155 174.03 15.6302 172.74 14.6062C171.445 13.5822 169.816 13.0702 167.849 13.0702C165.932 13.0702 164.392 13.4969 163.228 14.3502C162.068 15.2035 161.485 16.3129 161.485 17.6782C161.485 18.9955 161.969 20.0155 162.936 20.7395C163.904 21.4622 165.666 22.1249 168.228 22.7262C170.788 23.3275 172.706 23.9702 173.982 24.6515C175.258 25.3355 176.205 26.1555 176.824 27.1142C177.441 28.0755 177.749 29.2369 177.749 30.6022C177.749 32.8302 176.852 34.6102 175.054 35.9422C173.26 37.2755 170.913 37.9422 168.02 37.9422C164.948 37.9422 162.457 37.1982 160.546 35.7102C158.637 34.2235 157.681 32.3422 157.681 30.0662H160.606C160.721 31.7729 161.441 33.1022 162.765 34.0529C164.089 35.0035 165.841 35.4795 168.02 35.4795C170.053 35.4795 171.693 35.0315 172.946 34.1382C174.197 33.2449 174.824 32.1142 174.824 30.7489Z" fill="#A63438"/>
<path d="M201.846 24.0183C201.846 20.6543 201.157 17.9957 199.776 16.045C198.392 14.0943 196.466 13.1183 193.996 13.1183C192.208 13.1183 190.67 13.549 189.386 14.4103C188.104 15.273 187.12 16.5237 186.436 18.1663V30.8223C187.134 32.333 188.134 33.489 189.436 34.285C190.736 35.081 192.272 35.4797 194.044 35.4797C196.498 35.4797 198.413 34.4997 199.786 32.541C201.16 30.581 201.846 27.741 201.846 24.0183ZM204.773 24.5303C204.773 28.6437 203.862 31.9077 202.042 34.321C200.222 36.7357 197.784 37.9423 194.728 37.9423C191.118 37.9423 188.354 36.6743 186.436 34.1383V47.5983H183.534V11.0703H186.241L186.388 14.801C188.289 11.989 191.045 10.5823 194.653 10.5823C197.808 10.5823 200.282 11.777 202.078 14.1677C203.876 16.557 204.773 19.873 204.773 24.1157V24.5303Z" fill="#A63438"/>
<path d="M217.973 35.3575C219.924 35.3575 221.668 34.8855 223.202 33.9429C224.738 33.0002 225.856 31.7402 226.556 30.1629V24.3602H221.337C218.428 24.3922 216.15 24.9255 214.51 25.9575C212.868 26.9895 212.048 28.4082 212.048 30.2122C212.048 31.6909 212.594 32.9189 213.693 33.8949C214.79 34.8695 216.216 35.3575 217.973 35.3575ZM227.141 37.4549C226.848 36.6255 226.661 35.3989 226.58 33.7722C225.556 35.1055 224.25 36.1349 222.665 36.8562C221.082 37.5802 219.404 37.9415 217.63 37.9415C215.096 37.9415 213.042 37.2349 211.473 35.8215C209.904 34.4055 209.121 32.6175 209.121 30.4562C209.121 27.8869 210.189 25.8562 212.328 24.3602C214.465 22.8642 217.445 22.1162 221.264 22.1162H226.556V19.1175C226.556 17.2322 225.974 15.7482 224.812 14.6669C223.649 13.5855 221.954 13.0455 219.728 13.0455C217.696 13.0455 216.012 13.5655 214.68 14.6069C213.346 15.6469 212.68 16.8989 212.68 18.3615L209.753 18.3362C209.753 16.2402 210.729 14.4229 212.68 12.8869C214.63 11.3509 217.029 10.5829 219.874 10.5829C222.817 10.5829 225.137 11.3189 226.836 12.7895C228.533 14.2615 229.408 16.3122 229.457 18.9469V31.4322C229.457 33.9829 229.726 35.8935 230.261 37.1615V37.4549H227.141Z" fill="#A63438"/>
<path d="M249.227 13.5574C248.611 13.4441 247.951 13.3867 247.252 13.3867C245.431 13.3867 243.892 13.8947 242.631 14.9107C241.372 15.9267 240.474 17.4027 239.936 19.3361V37.4547H237.035V11.0707H239.89L239.936 15.2641C241.482 12.1427 243.96 10.5827 247.374 10.5827C248.188 10.5827 248.83 10.6881 249.3 10.9001L249.227 13.5574Z" fill="#A63438"/>
<path d="M259.604 24.1642L256.264 27.3842V37.4549H253.337V0.000197248H256.264V23.9695L259.019 20.9949L269.115 11.0709H272.796L261.604 22.1909L273.771 37.4549H270.284L259.604 24.1642Z" fill="#A63438"/>
</svg>
