<svg xmlns="http://www.w3.org/2000/svg" xmlns:xlink="http://www.w3.org/1999/xlink" width="320.17" height="320.18" viewBox="0 0 320.17 320.18">
    <defs>
        <linearGradient id="linear-gradient" x1="1.404" x2="1.568" y1="1.599" y2=".786" gradientUnits="objectBoundingBox">
            <stop offset="0" stop-color="#2860df"/>
            <stop offset="1" stop-color="#28a7df"/>
        </linearGradient>
        <linearGradient id="linear-gradient-2" x1=".599" x2=".174" y1=".29" y2="1.416" gradientUnits="objectBoundingBox">
            <stop offset="0" stop-color="#f36f31"/>
            <stop offset="1" stop-color="#fad12a"/>
        </linearGradient>
        <linearGradient id="linear-gradient-3" x1=".872" x2=".341" y1=".134" y2=".568" gradientUnits="objectBoundingBox">
            <stop offset="0" stop-color="#ff640b"/>
            <stop offset="1" stop-color="#fad12a"/>
        </linearGradient>
        <linearGradient id="linear-gradient-4" x1="-.285" x2=".445" y1=".137" y2=".44" xlink:href="#linear-gradient-3"/>
        <linearGradient id="linear-gradient-5" x1=".711" x2=".336" y1=".042" y2=".854" xlink:href="#linear-gradient-3"/>
        <linearGradient id="linear-gradient-6" x1=".224" x2="1" y1=".476" y2=".5" xlink:href="#linear-gradient"/>
        <linearGradient id="linear-gradient-8" x1=".886" x2=".11" y1=".5" y2=".482" gradientUnits="objectBoundingBox">
            <stop offset="0" stop-color="#fad12a"/>
            <stop offset=".673" stop-color="#34a9d5"/>
            <stop offset="1" stop-color="#28a7df"/>
        </linearGradient>
        <linearGradient id="linear-gradient-9" x2="1" y1=".5" y2=".5" gradientUnits="objectBoundingBox">
            <stop offset="0" stop-color="#f36f31"/>
            <stop offset=".998" stop-color="#662d91"/>
        </linearGradient>
        <linearGradient id="linear-gradient-10" x1="0" x2="1" y1=".5" y2=".5" xlink:href="#linear-gradient-3"/>
        <linearGradient id="linear-gradient-11" x1="1.003" x2="-.105" y1="-.698" y2="1.873" xlink:href="#linear-gradient-3"/>
        <style>
            .cls-3{fill:#fad12a}.cls-4{fill:#fff3c0}.cls-7{fill:#fbb03b}.cls-17{fill:url(#linear-gradient-6)}
        </style>
    </defs>
    <g id="Group_87" transform="translate(-259.88 -189.98)">
        <path id="Path_95" fill="#2860df" d="M580.05 350.07a160.117 160.117 0 0 1-94.21 145.95c-.09.04-.18.08-.28.12a157.8 157.8 0 0 1-22.32 8.1 160.993 160.993 0 0 1-96.73-3.22l-3.76-1.39q-4.635-1.77-9.12-3.83a160.153 160.153 0 1 1 226.42-145.73z"/>
        <path id="Path_96" fill="url(#linear-gradient)" d="M564.85 281.9a160.7 160.7 0 0 1-79.01 77.78c-.09.04-.18.08-.28.12a157.8 157.8 0 0 1-22.32 8.1 160.993 160.993 0 0 1-96.73-3.22l-3.76-1.39q-4.635-1.77-9.12-3.83a160.687 160.687 0 0 1-78.55-77.56 160.144 160.144 0 0 1 289.77 0z"/>
        <path id="Path_97" d="M511.57 453.54c-9.59 9.59-30.68 5.12-30.68 5.12s4.47 24.93 5.11 35.8a.481.481 0 0 1 0 .12 3.535 3.535 0 0 1-.44 1.56 157.8 157.8 0 0 1-22.32 8.1 160.993 160.993 0 0 1-96.73-3.22l-3.76-1.39c-1.57-1.61-3.1-3.34-4.6-5.17 0 0 7.87-30.9 1.21-47.87-.08-.23-.18-.46-.28-.69s-.19-.45-.29-.67c0 0-39.63 6.4-37.08-16.62s39.64-66.48 39.64-66.48l16.62 11.51-5.12 20.45s11.01-6.05 20.33-9.15a33.673 33.673 0 0 1 7.37-1.73 10.015 10.015 0 0 1 1.07-.06h.08c4.72 0 20.6-2.29 39.06.98.27.04.54.09.81.14.02 0 .04.01.06.01a97.672 97.672 0 0 1 13.13 3.39 77.849 77.849 0 0 1 35.72 24.32s-12.79-38.35-11.51-42.19l17.26-13.42s45.39 70.95 15.34 97.16z" class="cls-3"/>
        <path id="Path_98" d="M454.76 387.67c-1.5 3.18-14.84 12.89-31.78 13.11-20.56.26-27.75-11.23-29.8-15.84a33.673 33.673 0 0 1 7.37-1.73 8.137 8.137 0 0 1 1.07-.06 3.343 3.343 0 0 0 .27-.43 8.71 8.71 0 0 0 .32-2.1c.14-3.58-1.36-8.34-3.34-14.43l6.1.01h2.23l37.41 1.61 3.6.15c-4.91 7.29-8.43 13.04-7.45 16.17.01.01.01.01.01.02l.8.12c.02 0 .04.01.06.01a97.672 97.672 0 0 1 13.13 3.39z" class="cls-4"/>
        <path id="Path_99" d="M398.18 349.96c-.85 4.25-15.73 12.61-17.57 14.74s-2.64 8.94-2.64 8.94l-5.39-3.73-11.23-7.78a46.726 46.726 0 0 1 2.82-10.33c1.98-4.53-.71-12.05-1.7-19.98s.81-12.98 4.39-13.18c1.68-.09 3.06 6.54 3.8 11.06.38 2.33.59 4.1.59 4.1 2.98 19.42 13.61 18.43 17.57 15.87 2.6-1.67 6.17-2.85 8.08-2.27 1.02.3 1.57 1.09 1.28 2.56z" class="cls-4"/>
        <path id="Path_100" d="M456.71 341.03a48.047 48.047 0 0 1-1.63 12.11c-4.23 16.09-16.25 31.05-31.02 31.05-16.21 0-30.66-14.68-35.12-31.39a41.964 41.964 0 0 1-1.25-7.09c-1.72-19.69 13.27-11.34 31.75-11.34s37.27-13.11 37.27 6.66z" class="cls-4"/>
        <g id="Group_85">
            <path id="Path_101" fill="#f7931e" d="M408.214 379.444a39.931 39.931 0 0 1-6.995-5.526 23.913 23.913 0 0 1 .991 6.7 8.71 8.71 0 0 1-.32 2.1c1.504-1.186 4.046-1.93 6.324-3.274z"/>
            <path id="Path_102" fill="none" stroke="#f7931e" stroke-linecap="round" stroke-miterlimit="10" d="M437.061 380.851a24.506 24.506 0 0 1-13.016 3.934c-7.973 0-15.426-3.485-21.46-9.008"/>
        </g>
        <path id="Path_103" d="M456.71 341.03a48.047 48.047 0 0 1-1.63 12.11c-3.17-.5-6.36-1.4-9.02-1.94-9.17-1.86-33.73-11.05-50.45-1.56a43.09 43.09 0 0 1-6.67 3.16 41.964 41.964 0 0 1-1.25-7.09c-1.72-19.69 13.27-11.34 31.75-11.34s37.27-13.11 37.27 6.66z" class="cls-7"/>
        <path id="Path_104" fill="#fbb03b" d="M396.9 347.4c-5.93 5.39-12.658 8.235-20.31 7.15-5.747-.815-6.47-24.86-6.47-24.86s.19 0 .54.01c.38 2.33.59 4.1.59 4.1 2.98 19.42 13.61 18.43 17.57 15.87 2.6-1.67 6.17-2.85 8.08-2.27z" opacity="0.681"/>
        <path id="Path_105" d="M416.278 362.322a7.6 7.6 0 0 0 13.077 0"/>
        <path id="Path_106" fill="url(#linear-gradient-2)" d="M473.18 337.12c-.02 19.2-15.1 13.25-24.12 11.42-9.17-1.86-33.73-11.05-50.46-1.56s-23.81 3.83-28.48-17.29c-4.1-18.49-.26-22.42 3.8-24.15.58-.25 1.16-.46 1.72-.65 14.8-4.24 37.48.48 67.46-5.81 28.03-5.88 26.93 7.23 29.76 32.74a47.39 47.39 0 0 1 .32 5.3z"/>
        <path id="Path_107" fill="#f36f31" d="M473.18 337.12c-5.23 1.9-12.57-.57-17.86-1.65-9.26-1.87-34.06-11.16-50.95-1.57s-24.04 3.86-28.76-17.46a73.4 73.4 0 0 1-1.69-10.9c.58-.25 1.16-.46 1.72-.65 14.8-4.24 37.48.48 67.46-5.81 28.03-5.88 26.93 7.23 29.76 32.74a47.39 47.39 0 0 1 .32 5.3z"/>
        <path id="Path_108" d="M497.63 358.74l-5.19 3.69-11.36 8.08a10.236 10.236 0 0 1-5.16-.94c-2.51-1.14-5.38-3.58-7.18-8.72-1.51-4.32-8.63-7.74-13.31-9.23 0 0 1.2-3.81 4.29-3.95a4.938 4.938 0 0 1 2.41.55s5.6 2.2 7.86-.64c2.98-3.72 4.14-16.84 2.24-24.76-.79-3.29-.55-5.62.21-7.11 1.78-3.51 6.41-2.32 7.01 2.01 2.23 16.11 15.084 34.285 18.18 41.02z" class="cls-4"/>
        <path id="Path_109" fill="#fbb03b" d="M471.15 351.72c-3.37 1.24-7.45-.38-11.43-4.05a4.938 4.938 0 0 1 2.41.55s5.6 2.2 7.86-.64c2.98-3.72 4.14-16.84 2.24-24.76-.79-3.29-.55-5.62.21-7.11.49 1.12.96 2.28 1.4 3.47 5.66 15.33 4.46 29.9-2.69 32.54z" opacity="0.387"/>
        <path id="Path_110" fill="url(#linear-gradient-3)" d="M485.84 496.02a4.825 4.825 0 0 0 .16-1.44.481.481 0 0 0 0-.12c-.64-10.87-5.11-35.8-5.11-35.8-1.98 1.38-22.97-13.05-24.15-23.3 0 0 2.84 37.49 6.5 68.88a157.8 157.8 0 0 0 22.32-8.1z"/>
        <path id="Path_111" d="M380.61 364.7c-1.85 2.12-2.64 8.94-2.64 8.94l-5.39-3.73z" class="cls-7"/>
        <path id="Path_112" fill="url(#linear-gradient-4)" d="M384.91 431.37s-3.91 41.86-18.4 69.65l-3.76-1.39q-4.635-1.77-9.12-3.83c3.29-9.92 10.78-35.5 5.73-49.21-.09-.23-.18-.46-.28-.69s-.19-.45-.29-.67c0 0 22.13-2.88 26.12-13.86z"/>
        <circle id="Ellipse_82" cx="26.603" cy="26.603" r="26.603" fill="url(#linear-gradient-5)" transform="translate(469.04 235.837)"/>
        <circle id="Ellipse_83" cx="31.546" cy="31.546" r="31.546" fill="#28a7df" transform="translate(282.53 368.899)"/>
        <path id="Path_113" fill="none" stroke="#fad12a" stroke-miterlimit="10" d="M469.63 256.88c-8.87 6.5-13.61 13.72-11.61 19.23s10.28 8 21.24 7.29a87.173 87.173 0 0 0 42.41-15.41c8.86-6.5 13.59-13.72 11.59-19.22s-10.27-8-21.24-7.29"/>
        <path id="Rectangle_84" d="M0 0H52.541V11.306H0z" class="cls-17" transform="translate(270.845 388.806)"/>
        <path id="Rectangle_85" d="M0 0H63.932V11.306H0z" class="cls-17" transform="translate(278.161 399.445)"/>
        <path id="Rectangle_86" fill="url(#linear-gradient-8)" d="M0 0H63.932V11.306H0z" transform="translate(309.642 412.747)"/>
        <circle id="Ellipse_84" cx="26.603" cy="26.603" r="26.603" fill="url(#linear-gradient-9)" transform="translate(287.472 271.087)"/>
        <g id="Group_86">
            <path id="Path_114" fill="url(#linear-gradient-10)" d="M339.45 289.68a22.9 22.9 0 0 1 .63 2.37c6.26 1.7 9.42 3.88 9.42 5.64s-3.16 3.94-9.42 5.64c-5.91 1.6-14.61 2.78-26 2.78s-20.1-1.18-26.01-2.78c-6.26-1.7-9.42-3.88-9.42-5.64s3.16-3.94 9.42-5.64a22.9 22.9 0 0 1 .63-2.37c-9.45 1.33-16.05 3.79-16.05 8.01s6.6 6.68 16.05 8.01a190.212 190.212 0 0 0 25.38 1.41 190.058 190.058 0 0 0 25.37-1.41c9.45-1.33 16.05-3.79 16.05-8.01s-6.6-6.68-16.05-8.01z"/>
        </g>
        <path id="Path_115" fill="url(#linear-gradient-11)" d="M407.852 225.113L411 231.5l7.048 1.024-5.1 4.971 1.2 7.019-6.3-3.314-6.3 3.314 1.2-7.019-5.1-4.971 7.052-1.024z"/>
        <path id="Path_116" d="M321.612 361.793l3.152 6.386 7.048 1.024-5.1 4.971 1.2 7.019-6.3-3.314-6.3 3.314 1.2-7.019-5.1-4.971 7.047-1.024z" class="cls-3"/>
    </g>
</svg>
