<svg xmlns="http://www.w3.org/2000/svg" xmlns:xlink="http://www.w3.org/1999/xlink" width="527" height="303.47" viewBox="0 0 527 303.47">
    <defs>
        <linearGradient id="linear-gradient" x1="1.098" x2=".106" y1=".794" y2=".376" gradientUnits="objectBoundingBox">
            <stop offset="0" stop-color="#ff640b"/>
            <stop offset="1" stop-color="#fad12a"/>
        </linearGradient>
        <linearGradient id="linear-gradient-2" x1="1.115" x2=".418" y1=".476" y2=".567" xlink:href="#linear-gradient"/>
        <style>
            .cls-1{fill:#fff}.cls-2{fill:#a01e21}.cls-4{fill:#fff3c0}.cls-5{fill:#fad12a}.cls-10{fill:none;stroke-linecap:round;stroke-miterlimit:10}.cls-7{fill:#f7931e}.cls-8{fill:#fbb03b}.cls-10{stroke:#f36f31}.cls-14{fill:#438584}.cls-15{fill:#0071bc}.cls-19{fill:#a23436}
        </style>
    </defs>
    <g id="Group_17309" transform="translate(-733 -203)">
        <rect id="Rectangle_4377" width="527" height="303.47" class="cls-1" rx="24" transform="translate(733 203)"/>
        <g id="Group_14922" transform="translate(2 0.99)">
            <g id="Group_14921">
                <circle id="Ellipse_6" cx="55.524" cy="55.524" r="55.524" class="cls-2" transform="translate(760.915 237.01)"/>
                <path id="Path_4" fill="#030102" d="M369.169 126.778s-8.743 1.723-10.339-8.105 7.275-10.765 9.126-13.573 6.063-6.467 13.658-3.914 5.616 10.02 11.871 11.934 7.148 10.531 9.637 13.4 6.552 1.659 8.4 6.191c1.5 3.673-.99 6.014-3.553 7.722-3.446 2.3-2.025 5.621-.83 7.659 2.808 4.787-2.808 12.637-12.381 6.893z" transform="translate(440.697 169.65)"/>
                <path id="Path_8" d="M395.721 163.952v4.679l-2.638.257a6.322 6.322 0 0 0 6.723 5.7c6.3 0 8.509-8.339 8.509-8.339s.153-.394.45-1.079l-.024-.112s-1.5-5.74-.618-9.281a2.732 2.732 0 0 0 .7.092 2.7 2.7 0 0 0 2.723-2.723c-.085-2.873-3.282-2.679-3.539-2.6a9.529 9.529 0 0 1-9.65-5.827s-1.618 5.105-8.17 5.105c.003.001-1.529 10.639 5.534 14.128z" class="cls-4" transform="translate(415.314 133.774)"/>
                <path id="Path_9" d="M380.5 164.589c-2.328 9.836-1.743 21.823 6.577 34.557a52.355 52.355 0 0 1-15.7 6.266 48.077 48.077 0 0 1-12.469 1.2 42.113 42.113 0 0 1-17.359-4.447 58.694 58.694 0 0 1 8-39.952l3.744-.852a6.321 6.321 0 0 0 6.721 5.7c6.3 0 8.51-8.339 8.51-8.339s7.66-19.743 20.082-23.316l5.786 4.17a57.075 57.075 0 0 0-12.129 19.227 48.2 48.2 0 0 0-1.763 5.786z" class="cls-5" transform="translate(455.1 141.297)"/>
                <path id="Path_10" fill="none" stroke="#f7931e" stroke-linecap="round" stroke-miterlimit="10" d="M419.269 245.37a9.436 9.436 0 0 0 3.553 1.485 8.439 8.439 0 0 0 4.595-.378" transform="translate(391.702 52.439)"/>
                <circle id="Ellipse_10" cx=".83" cy=".83" r=".83" transform="translate(809.355 287.301)"/>
                <circle id="Ellipse_11" cx=".83" cy=".83" r=".83" transform="translate(817.715 287.301)"/>
                <path id="Path_11" d="M424.711 227.191a2.619 2.619 0 0 0 4.506 0" transform="translate(387.305 67.13)"/>
                <path id="Path_12" d="M589.863 96.464s2.34-4.212 2.212-6.127 1.276-1.851 1.276-1.851 1.34-.064 1.851 2.553c.276 1.413 1.408.443 2-.187.885-.942 1.555-2.083 2.471-2.991a2.217 2.217 0 0 1 1.645-.647 1.181 1.181 0 0 1 .9.3.875.875 0 0 1 .175.734 1.76 1.76 0 0 1-.333.7c-.442.609-2.3 1.828-2.007 2.709.343 1.019 2.248-.507 2.681-.748 1.149-.638 2.207-1.027 2.744-.319.7.925.159 1.915-1.915 2.744-1.861.744-2.489 2.17-.447 1.851s3.063-.383 3.191.447c.25 1.628-1.915 2.17-5.106 2.425a9.992 9.992 0 0 0-5.552 2.574z" class="cls-4" transform="translate(253.849 180.244)"/>
                <path id="Path_13" d="M154.692 160.922l-3.416 2.023c-1.449.86-2.808 1.664-2.808 1.664a10.163 10.163 0 0 0-5.385-3.1c-.478-.081-.983-.161-1.489-.265a7.8 7.8 0 0 1-2.554-.908c-.674-.418-1.622-1.781-.4-2.247a2.26 2.26 0 0 1 1.267.019q.938.193 1.873.388a1.364 1.364 0 0 0 .512.038c1.455-.271-.919-1.867-1.244-2.057a4.506 4.506 0 0 1-1.238-.935 1.753 1.753 0 0 1-.413-.965 1.173 1.173 0 0 1 .058-.482c.269-.785.973-.7 1.553-.413.716.355 3.13 2.489 3.884 1.428.484-.681-1.455-2.261-1.752-2.787-.368-.651-.7-2.03.205-2.435a1.191 1.191 0 0 1 1.044.161 4.789 4.789 0 0 1 1.589 1.643c.478.752.844 1.57 1.357 2.3.345.489 1.044 1.662 1.743 1.658.889 0 1.125-1.516 1.378-2.134.411-1 1.917-2.683 3.082-1.668a1.736 1.736 0 0 1 .34 1.545 16.319 16.319 0 0 0-.434 3.9 25.477 25.477 0 0 0 1.248 3.629z" class="cls-4" transform="translate(618.951 129.65)"/>
                <path id="Path_15" d="M423.089 247.036l-3.489 2.221v-3.662a9.175 9.175 0 0 0 3.489 1.441z" class="cls-7" transform="translate(391.435 52.258)"/>
                <path id="Path_16" d="M612.394 145.565a10.126 10.126 0 0 1 5.212-2.538c-.709-.07-1.443-.141-2.181-.2a8.8 8.8 0 0 0-4.841 1.43z" class="cls-8" transform="translate(237.104 135.311)"/>
                <path id="Path_19" fill="url(#linear-gradient)" d="M503.746 322.007a52.354 52.354 0 0 1-15.7 6.266c-9.091-26.356 6.136-38.708 9.12-40.823-2.325 9.836-1.74 21.823 6.58 34.557z" transform="translate(338.433 18.436)"/>
                <path id="Path_22" d="M370.164 166.447a6.192 6.192 0 0 0 3.957.935" class="cls-10" transform="translate(431.383 116.216)"/>
                <path id="Path_23" d="M486.916 185.121a.862.862 0 0 1-.606 1.613z" class="cls-7" transform="translate(337.528 101.126)"/>
                <path id="Path_24" d="M607.044 256.917a4.443 4.443 0 0 1 4.443 4.443" class="cls-10" transform="translate(239.965 43.109)"/>
                <path id="Path_25" d="M166.2 209.87c-1.449.86-2.808 1.664-2.808 1.664a10.163 10.163 0 0 0-5.385-3.1c-.478-.081-.983-.161-1.489-.265a13.513 13.513 0 0 1 8.922 1.259 5.278 5.278 0 0 1 .76.442z" class="cls-8" transform="translate(604.025 82.726)"/>
                <path id="Path_26" d="M220.8 220.26a57.738 57.738 0 0 0-5.168 10.694 58.962 58.962 0 0 0-2.366 8.439c-5.151-.729-10.456-3.514-15.223-6.976-9.444-6.861-16.768-16.384-16.557-17.858.754-4.56 4.343-6.349 8.765-7.318 7.305 10.198 17.809 13.884 30.549 13.019z" class="cls-5" transform="translate(583.858 83.251)"/>
                <path id="Path_27" fill="url(#linear-gradient-2)" d="M285.359 330.8a58.961 58.961 0 0 0-2.366 8.439c-5.151-.729-10.456-3.514-15.223-6.976a153.419 153.419 0 0 0 17.589-1.463z" transform="translate(514.126 -16.595)"/>
                <path id="Path_28" d="M147.964 178.547c1.455-.271-.919-1.867-1.244-2.057a4.507 4.507 0 0 1-1.238-.935 1.753 1.753 0 0 1-.413-.965 9.4 9.4 0 0 0 3.334 1.862c1.851.448 1.297 2.212-.439 2.095z" class="cls-5" transform="translate(613.277 109.635)"/>
            </g>
            <text id="Students" fill="#f36f31" font-family="Manrope-Bold, Manrope" font-size="16px" font-weight="700" transform="translate(814 369.053)">
                <tspan x="-36.16" y="0">Students</tspan>
            </text>
        </g>
        <g id="Group_14924" transform="translate(0 0.001)">
            <text id="Parents" fill="#a5d170" font-family="Manrope-Bold, Manrope" font-size="16px" font-weight="700" transform="translate(1161.232 383.95)">
                <tspan x="-30.216" y="0">Parents</tspan>
            </text>
            <g id="Group_14923">
                <path id="Path_256" d="M4090.363-142.818a69.156 69.156 0 0 1-34.43 59.833 68.453 68.453 0 0 1-6.729 3.436q-2.922 1.3-5.982 2.325l-.033.012q-1.025.343-2.063.655-.6.183-1.209.351a68.85 68.85 0 0 1-14.8 2.456q-.906.052-1.822.079c-.7.023-1.41.033-2.118.033a68.954 68.954 0 0 1-48.777-20.13q-.59-.582-1.162-1.183a69.028 69.028 0 0 1-5.264-6.176A68.859 68.859 0 0 1 3952-142.818 69.183 69.183 0 0 1 4021.181-212a69.182 69.182 0 0 1 69.182 69.182z" class="cls-2" transform="translate(-2855.359 436.999)"/>
                <path id="Path_257" d="M4038.35 326.057l-1.106-.334a69.068 69.068 0 0 1-5.264-6.176c2.84-15.753 7.809-21.626 7.979-21.82v-.005l5.673 30.538z" class="cls-14" transform="translate(-2921.366 16.327)"/>
                <path id="Path_258" d="M4038.35 326.057l-1.106-.334a69.068 69.068 0 0 1-5.264-6.176c2.84-15.753 7.809-21.626 7.979-21.82v-.005l5.673 30.538z" class="cls-15" transform="translate(-2921.366 16.327)"/>
                <path id="Path_259" fill="#28a7df" d="M4151.323 283.12c-.316 5.073-1.99 12.357-4.127 19.94a68.4 68.4 0 0 1-6.729 3.436l-5.991 2.329-.024.009-1.794.7c-.491.1-.984.206-1.479.307a68.851 68.851 0 0 1-14.795 2.456c-.617.072-1.234.14-1.85.2l.028-.122c-.7.023-1.41.033-2.117.033a68.953 68.953 0 0 1-48.784-20.131l-.056-.847-.891-13.817s-1-9.006 2.5-14.512v-.005c1.857-2.919 10.187-5.276 19.617-6.473q1.124-.144 2.268-.262c.352-.037.7-.072 1.055-.1q.506-.05 1.012-.094.691-.058 1.383-.11l.691-.049q.693-.047 1.382-.084c.23-.014.461-.024.69-.037l.515-.024c.289-.012.573-.023.86-.031.334-.012.667-.023 1-.03l.5-.01c.138 0 .278-.007.416-.009a.392.392 0 0 1 .064 0 .019.019 0 0 1 .014 0c.2 0 .409-.007.613-.009h.349q1.145-.005 2.262.017l.516.014c.365.009.727.021 1.084.037.181.007.358.016.537.024.336.016.667.035 1 .056.1.005.2.012.3.019l.592.044c.394.031.779.065 1.16.1s.743.077 1.1.121c.136.016.269.033.4.051l.4.052.608.087c.113.017.227.035.339.054.183.03.365.059.545.091l.287.052.39.073c.23.044.465.087.7.135l.309.061c.208.04.419.082.633.126l.486.1.384.08c.146.03.3.061.446.094l.8.173c.135.028.269.058.406.089l.412.093.416.094.432.1.437.1.723.175c.648.154 1.309.32 1.981.493l.29.075.763.2c.257.067.491.131.739.2q.79.215 1.6.445l.293.084.06.017q1.077.312 2.17.652c.243.075.486.152.73.229 13.327 4.227 27.647 11.496 26.95 22.639z" transform="translate(-2946.622 50.954)"/>
                <path id="Path_261" d="M4224.606 256.586c-5.782-1.071-13.945-1.041-21.669-.227 1.212 5.623 4.39 11.832 12.157 14.745 9.474 3.553 19.524 1 25.107-10.629a133.034 133.034 0 0 0-15.595-3.889z" class="cls-14" transform="translate(-3062.457 50.954)"/>
                <path id="Path_262" d="M4224.606 256.586c-5.782-1.071-13.945-1.041-21.669-.227 1.212 5.623 4.39 11.832 12.157 14.745 9.474 3.553 19.524 1 25.107-10.629a133.034 133.034 0 0 0-15.595-3.889z" class="cls-15" transform="translate(-3062.457 50.954)"/>
                <path id="Path_263" d="M4385.893 524.8l-5.99 2.329-.024.009-1.795.7c-.49.1-.983.206-1.478.307a68.848 68.848 0 0 1-14.8 2.456c-.616.072-1.232.14-1.85.2l.027-.122 1.8-7.832.589-2.568s9.228 4.112 23.521 4.521z" class="cls-4" transform="translate(-3192.048 -167.352)"/>
                <path id="Path_264" fill="rgba(251,176,59,0.5)" d="M4394.508 524.8c-14.3-.411-23.518-4.521-23.518-4.521l-.591 2.568c4.855 2.785 10.4 4.018 16.029 4.946l.269.044z" transform="translate(-3200.664 -167.352)"/>
                <g id="Group_151" transform="translate(1138.146 248.596)">
                    <path id="Path_265" d="M4272.047 183.1l-4 17.021s-16.02 15.019-26.031-1 30.031-16.021 30.031-16.021z" class="cls-4" transform="translate(-4231.525 -137.674)"/>
                    <path id="Path_266" d="M4202.607-75.945s-4.505 1.378-9.368 20.774-5.31 28.426 1.288 32.617 30.333 6.19 37.916-22.427-12.412-34.679-29.836-30.964z" class="cls-4" transform="translate(-4189.58 76.929)"/>
                </g>
                <g id="Group_153" transform="translate(1179.795 272.518)">
                    <g id="Group_152" transform="translate(0 0)">
                        <path id="Path_267" d="M4431.785 60s-2.51 2.374-3.806 13.512c0 0 6.191 1.643 8.132-6.568 1.539-6.514-4.326-6.944-4.326-6.944z" class="cls-4" transform="translate(-4427.979 -60)"/>
                    </g>
                </g>
                <path id="Path_268" d="M4215.667-149.731c-6.585-12.11-38.613-10.366-39.535-11.653 0 0 2.086 6.1 7.294 8.706l-11.231-1.054c4.742 14.952 13.048 15.334 19.486 15.943 7.99.756 18.822-2.014 18.822-2.014 2.768 1.722 3.467 7.312 2.371 13.911-1.963 9.239-6.767 29.461-11.349 30.219a1.574 1.574 0 0 1-.633-.021c-6.12-1.483 3.437-10.615-5.178-12.055-4.609-.77-15.219-4.715-17.324-.041s-1.59 8.355-5.2 6.993-1.742-11.7-1.742-11.7-10.976 17.373 1.45 26.487c6.732 4.938 16.551 5.9 24.573 3.375l.13-.04c.163-.052.324-.107.485-.162l.18-.061c.151-.053.3-.108.452-.163l.2-.076c.144-.054.286-.111.428-.167l.219-.088c.137-.056.273-.114.409-.172l.228-.1c.132-.059.263-.118.394-.179l.231-.108c.128-.061.255-.123.381-.186l.232-.118c.125-.063.248-.128.37-.193l.231-.126c.12-.066.241-.133.359-.2l.229-.134c.117-.069.234-.138.349-.209.076-.046.149-.094.225-.141.114-.072.228-.144.339-.218.074-.049.146-.1.219-.148.111-.075.222-.15.332-.227l.21-.152c.109-.079.218-.157.326-.238l.193-.151c.109-.085.219-.169.326-.255l.138-.115q.357-.3.7-.605c.045-.041.091-.08.135-.122.087-.081.172-.165.258-.248.071-.069.144-.137.213-.206s.157-.161.235-.242.146-.151.217-.227.146-.162.22-.244.144-.16.214-.242l.207-.247c.069-.082.139-.168.208-.253s.13-.168.194-.252l.2-.265c.066-.089.122-.17.182-.256l.19-.276c.063-.093.114-.173.17-.26s.121-.191.18-.287.107-.176.159-.265.114-.2.169-.3.1-.179.146-.269l.159-.309c.053-.104.09-.181.134-.273s.1-.214.147-.322c.041-.091.083-.183.121-.275.047-.111.092-.224.137-.337.036-.091.073-.182.108-.275.043-.117.084-.236.125-.355.031-.09.063-.18.093-.271.042-.126.079-.255.117-.383l.077-.258c.04-.144.076-.29.111-.436.018-.074.038-.146.055-.22.051-.221.1-.444.139-.67q.083-.453.168-.9l.043-.234.151-.8.019-.1.169-.889.042-.218.143-.738.033-.171c.056-.288.111-.575.168-.861l.041-.208.138-.7.041-.207.167-.838.035-.177.14-.693c.016-.072.03-.145.044-.217l.167-.82.025-.127.144-.7.049-.237.161-.772c0-.023.009-.047.014-.07l.156-.746.047-.225.139-.656.028-.13.16-.751.044-.207.129-.6.037-.17.155-.715.04-.184c.042-.2.085-.391.127-.584l.036-.162.153-.7.029-.135.128-.579.035-.159c.051-.228.1-.454.151-.677l.009-.041.142-.632.027-.12q.152-.673.3-1.307l.012-.054c.456-2 .851-3.678 1.153-4.946.476-.074 5.908-16.251-.678-28.362z" transform="translate(-3032.778 395.226)"/>
                <circle id="Ellipse_128" cx="1.619" cy="1.619" r="1.619" transform="translate(1150.744 266.927)"/>
                <circle id="Ellipse_129" cx="1.619" cy="1.619" r="1.619" transform="translate(1166.521 271.12)"/>
                <path id="Path_269" d="M4260 172a5.712 5.712 0 0 0 9.828 0z" class="cls-1" transform="translate(-3109.552 120.084)"/>
            </g>
        </g>
        <g id="Group_14920" transform="translate(17 0.181)">
            <g id="Group_14919" transform="translate(0 27)">
                <circle id="Ellipse_130" cx="60.075" cy="60.075" r="60.075" fill="none" stroke="#a23436" transform="translate(919 325.819)"/>
            </g>
        </g>
        <g id="EI" transform="translate(910 3281)">
            <path id="Path_22225" d="M60-2868v26h31.193v-10.385H70.4v-10.4h10.389v-10.4H70.4v-10.4h20.793V-2894H60z" class="cls-19"/>
            <path id="Path_22226" d="M2083.935-2893.6a7.489 7.489 0 0 0-4.326 1.833 7.49 7.49 0 0 0-2.037 8.4 8.166 8.166 0 0 0 .837 1.551 8.748 8.748 0 0 0 1.307 1.426 7.559 7.559 0 0 0 3.972 1.712 9.538 9.538 0 0 0 1.376.029 7.448 7.448 0 0 0 2.752-.732 7.515 7.515 0 0 0 4.1-5.38 5.95 5.95 0 0 0 .112-1.367 5.97 5.97 0 0 0-.112-1.367 7.519 7.519 0 0 0-3.5-5.055 7.549 7.549 0 0 0-3.011-1.03 12.055 12.055 0 0 0-1.47-.02z" class="cls-19" transform="translate(-1980.036 -0.384)"/>
            <path id="Path_22227" d="M1760-1754.8l.006 5.2 5.2.005h5.2v20.789h10.4V-1760H1760z" class="cls-19" transform="translate(-1668.807 -1113.193)"/>
        </g>
    </g>
</svg>
