<svg xmlns="http://www.w3.org/2000/svg" xmlns:xlink="http://www.w3.org/1999/xlink" width="47.878" height="44.48" viewBox="0 0 47.878 44.48">
    <defs>
        <linearGradient id="linear-gradient" x1=".21" x2="1.194" y1=".5" y2=".5" gradientUnits="objectBoundingBox">
            <stop offset="0" stop-color="#a5d170"/>
            <stop offset="1" stop-color="#28a7df"/>
        </linearGradient>
        <linearGradient id="linear-gradient-3" x1=".479" x2=".516" y1="-.023" y2="1.309" xlink:href="#linear-gradient"/>
        <style>
            .cls-1{fill-rule:evenodd;fill:url(#linear-gradient)}
        </style>
    </defs>
    <g id="Group_133" transform="translate(-376.061 -361.76)">
        <path id="Path_246" d="M395.309 406.24v-4.367a4.292 4.292 0 0 1-4.529-4.367 4.167 4.167 0 0 1 4.529-4.206v-4.367h-8.087a5.673 5.673 0 0 0 .97-2.264 2.426 2.426 0 1 0-4.852 0 5.425 5.425 0 0 0 .809 2.264h-8.088v16.013a1.3 1.3 0 0 0 1.294 1.294z" class="cls-1"/>
        <path id="Path_247" d="M416.337 388.933h-5.015a4.3 4.3 0 1 1-8.572 0h-5.661v6.794a10.449 10.449 0 0 0-2.1-.647c-3.073 0-3.073 4.852 0 4.852a5.264 5.264 0 0 0 2.1-.647v6.955h17.954a1.3 1.3 0 0 0 1.294-1.294z" class="cls-1"/>
        <path id="Path_248" fill="url(#linear-gradient-3)" fill-rule="evenodd" d="M376.061 387.154h5.5a4.231 4.231 0 1 1 8.411 0h5.337v-7.279a7.619 7.619 0 0 0 2.427.971c3.234 0 3.234-5.014 0-5.014a7.168 7.168 0 0 0-2.427.808v-6.793h-17.954a1.3 1.3 0 0 0-1.294 1.294z"/>
        <path id="Path_249" fill="#a5d170" fill-rule="evenodd" d="M423.939 379.067v-16.013a1.426 1.426 0 0 0-1.456-1.294h-17.792v4.2a4.231 4.231 0 1 1 0 8.411v4.691h8.087a10.439 10.439 0 0 0-.647 2.1c0 3.235 5.014 3.235 5.014 0a5.655 5.655 0 0 0-.808-2.1z"/>
    </g>
</svg>
