<svg xmlns="http://www.w3.org/2000/svg" xmlns:xlink="http://www.w3.org/1999/xlink" width="218.71" height="206" viewBox="0 0 218.71 206">
    <defs>
        <linearGradient id="linear-gradient" x1=".793" x2="-.267" y1=".5" y2=".5" gradientUnits="objectBoundingBox">
            <stop offset="0" stop-color="#00a9e5"/>
            <stop offset=".999" stop-color="#0071bc"/>
        </linearGradient>
        <linearGradient id="linear-gradient-2" x1=".018" x2="1.48" xlink:href="#linear-gradient"/>
        <linearGradient id="linear-gradient-3" x2="1" y1=".5" y2=".5" gradientUnits="objectBoundingBox">
            <stop offset="0" stop-color="#ff640b"/>
            <stop offset="1" stop-color="#fad12a"/>
        </linearGradient>
        <linearGradient id="linear-gradient-4" x1="1.057" x2=".044" y1=".5" y2=".5" gradientUnits="objectBoundingBox">
            <stop offset="0" stop-color="#a5d170"/>
            <stop offset="1" stop-color="#28a7df"/>
        </linearGradient>
        <linearGradient id="linear-gradient-5" x1="1.303" x2=".175" xlink:href="#linear-gradient"/>
        <linearGradient id="linear-gradient-7" x1=".5" x2=".5" y1="4.796" y2="-2.018" xlink:href="#linear-gradient-4"/>
        <linearGradient id="linear-gradient-8" x1=".5" x2=".5" y1="3.079" y2="-3.735" xlink:href="#linear-gradient-4"/>
        <linearGradient id="linear-gradient-9" x1=".985" x2=".069" xlink:href="#linear-gradient-3"/>
        <linearGradient id="linear-gradient-10" x1="-.016" x2="1.482" xlink:href="#linear-gradient-4"/>
        <linearGradient id="linear-gradient-11" x1="-.159" x2="1" xlink:href="#linear-gradient"/>
        <linearGradient id="linear-gradient-12" x1=".5" x2=".5" y1="4.834" y2="-2.021" xlink:href="#linear-gradient-4"/>
        <linearGradient id="linear-gradient-13" x1=".5" x2=".5" y1="3.117" y2="-3.738" xlink:href="#linear-gradient-4"/>
        <linearGradient id="linear-gradient-14" x1=".5" x2=".5" y1="5.173" y2="-1.076" xlink:href="#linear-gradient-3"/>
        <linearGradient id="linear-gradient-16" x1=".5" x2=".5" y1="3.456" y2="-2.793" xlink:href="#linear-gradient-3"/>
        <linearGradient id="linear-gradient-18" x1=".293" x2="1.093" xlink:href="#linear-gradient-3"/>
        <style>
            .cls-2{fill:#f36f31}.cls-7{fill:#fff}.cls-8{fill:url(#linear-gradient-3)}.cls-9{fill:#28a7df}.cls-20{fill:url(#linear-gradient-14)}.cls-21{fill:url(#linear-gradient-16)}.cls-22{fill:#f7931e}
        </style>
    </defs>
    <g id="Group_70" transform="translate(-42.38 -46)">
        <path id="Rectangle_62" fill="none" d="M0 0H73.082V140.074H0z" transform="translate(115.194 111.926)"/>
        <path id="Path_70" d="M354.582 192.951H281.5l36.237-30.451 28.557 23.6z" class="cls-2" transform="translate(-166.306 -81.025)"/>
        <path id="Rectangle_63" fill="#fad12a" d="M0 0H73.082V140.074H0z" transform="translate(115.194 111.926)"/>
        <path id="Path_71" fill="url(#linear-gradient)" d="M594.278 361.36v94.071H521.5V338.5h49.907z" transform="translate(-333.224 -203.431)"/>
        <path id="Path_72" fill="url(#linear-gradient-2)" d="M42.5 361.36v94.071h72.778V338.5H65.371z" transform="translate(-.084 -203.431)"/>
        <g id="Group_67" transform="translate(150.974 46)">
            <path id="Rectangle_64" d="M0 0H1.218V37.15H0z" class="cls-2"/>
        </g>
        <path id="Path_73" fill="#ff640b" d="M400.5 46.026h25.579l-7.613 7.613 7.156 7.156H400.5z" transform="translate(-249.07)"/>
        <circle id="Ellipse_75" cx="17.661" cy="17.661" r="17.661" class="cls-7" transform="translate(133.464 122.279)"/>
        <path id="Path_74" d="M593.488 361.338H520.5V338.5h50.15z" class="cls-8" transform="translate(-332.528 -203.431)"/>
        <path id="Path_75" d="M656.129 361.255H610.38l22.875-22.875z" class="cls-2" transform="translate(-395.039 -203.348)"/>
        <path id="Path_76" d="M656.176 413.5v94.093H610.5V413.5h17.1a5.784 5.784 0 0 0 11.468 0z" class="cls-9" transform="translate(-395.123 -255.593)"/>
        <path id="Rectangle_65" fill="url(#linear-gradient-4)" d="M0 0H45.676V20.707H0z" transform="translate(215.377 231.293)"/>
        <path id="Rectangle_66" fill="url(#linear-gradient-5)" d="M0 0H26.949V20.707H0z" transform="translate(188.428 231.293)"/>
        <path id="Path_77" fill="#a5d170" d="M674.748 640.374v19.184H658v-19.184a8.374 8.374 0 0 1 8.374-8.374 8.374 8.374 0 0 1 8.374 8.374z" transform="translate(-428.159 -407.558)"/>
        <path id="Rectangle_67" d="M0 0H73.082V21.468H0z" class="cls-8" transform="translate(115.194 230.532)"/>
        <rect id="Rectangle_68" width="16.748" height="16.139" fill="url(#linear-gradient-7)" rx="8" transform="translate(229.994 173.437)"/>
        <rect id="Rectangle_69" width="16.748" height="16.139" fill="url(#linear-gradient-8)" rx="8" transform="translate(229.994 201.147)"/>
        <path id="Path_78" fill="url(#linear-gradient-9)" d="M42.81 361.338h72.99V338.5H65.648z" transform="translate(-.299 -203.431)"/>
        <path id="Path_79" d="M42.38 361.255h45.749L65.255 338.38z" class="cls-2" transform="translate(0 -203.348)"/>
        <path id="Path_80" d="M88.176 413.5v94.093H42.5V413.5h17.256a5.784 5.784 0 0 0 11.468 0z" class="cls-9" transform="translate(-.084 -255.593)"/>
        <path id="Rectangle_70" fill="url(#linear-gradient-10)" d="M0 0H45.676V20.707H0z" transform="translate(42.416 231.293)"/>
        <path id="Rectangle_71" fill="url(#linear-gradient-11)" d="M0 0H26.949V20.707H0z" transform="translate(88.093 231.293)"/>
        <path id="Path_81" d="M90 640.374v19.184h16.748v-19.184A8.374 8.374 0 0 0 98.374 632 8.374 8.374 0 0 0 90 640.374z" class="cls-7" transform="translate(-33.119 -407.558)"/>
        <rect id="Rectangle_72" width="16.748" height="16.139" fill="url(#linear-gradient-12)" rx="8" transform="translate(56.728 173.437)"/>
        <rect id="Rectangle_73" width="16.748" height="16.139" fill="url(#linear-gradient-13)" rx="8" transform="translate(56.728 201.147)"/>
        <g id="Group_68" transform="translate(128.592 167.347)">
            <rect id="Rectangle_74" width="16.748" height="16.139" class="cls-20" rx="8" transform="translate(28.624)"/>
            <rect id="Rectangle_75" width="16.748" height="16.139" class="cls-20" rx="8"/>
        </g>
        <g id="Group_69" transform="translate(128.592 195.057)">
            <rect id="Rectangle_76" width="16.748" height="16.139" class="cls-21" rx="8" transform="translate(28.624)"/>
            <rect id="Rectangle_77" width="16.748" height="16.139" class="cls-21" rx="8"/>
        </g>
        <path id="Path_82" d="M381.342 646.421V670.2H351.5v-23.78a14.921 14.921 0 0 1 14.921-14.92 14.921 14.921 0 0 1 14.921 14.921z" class="cls-2" transform="translate(-214.99 -418.2)"/>
        <path id="Path_83" d="M110.571 397.786a5.707 5.707 0 0 1-.052.761H99.052a5.706 5.706 0 0 1-.052-.761 5.786 5.786 0 0 1 11.571 0z" class="cls-22" transform="translate(-39.379 -240.64)"/>
        <path id="Path_84" d="M678.071 397.786a5.715 5.715 0 0 1-.052.761h-11.467a5.7 5.7 0 0 1-.052-.761 5.786 5.786 0 0 1 11.571 0z" class="cls-22" transform="translate(-434.07 -240.64)"/>
        <path id="Path_85" fill="url(#linear-gradient-18)" d="M396.659 246.851H342V240h46.371z" transform="translate(-208.383 -134.925)"/>
    </g>
</svg>
