<svg xmlns="http://www.w3.org/2000/svg" width="94" height="82" fill="none" viewBox="0 0 94 75">
    <path fill="#fff" d="M59 5H72.5V38H59z"/>
    <circle cx="66" cy="46" r="28" fill="#fff"/>
    <path fill="#fff" d="M29.354 23.678c1.883-3.26 6.556-3.348 8.561-.162l27.262 43.32c2.096 3.33-.297 7.664-4.231 7.664H8.662c-3.85 0-6.255-4.167-4.33-7.5l25.022-43.322z"/>
    <path fill="#fff" d="M27 5H41V38H27z"/>
    <path fill="#fff" d="M23 3c0-1.657 1.343-3 3-3h16c1.657 0 3 1.343 3 3s-1.343 3-3 3H26c-1.657 0-3-1.343-3-3zM56 3c0-1.657 1.343-3 3-3h13.5c1.657 0 3 1.343 3 3s-1.343 3-3 3H59c-1.657 0-3-1.343-3-3z"/>
    <path fill="url(#paint0_linear)" d="M70.962 20.317V5.178c.528-.012 1.032-.237 1.402-.627.37-.39.577-.915.577-1.46 0-.546-.207-1.07-.577-1.46-.37-.391-.874-.616-1.402-.629H60.844c-.27-.006-.538.044-.789.146-.25.102-.479.255-.672.45-.192.194-.346.426-.45.682-.105.257-.158.532-.158.81 0 .279.053.554.158.81.105.257.258.489.45.683.193.195.422.348.672.45.251.102.52.151.789.145v15.14C54.7 21.61 49.242 25.211 45.525 30.421c-3.716 5.21-5.424 11.66-4.794 18.096.63 6.437 3.554 12.403 8.204 16.741C53.586 69.598 59.633 72 65.903 72s12.316-2.401 16.967-6.74c4.65-4.338 7.575-10.304 8.204-16.74.63-6.437-1.078-12.886-4.794-18.097-3.716-5.21-9.175-8.811-15.318-10.105z"/>
    <path fill="url(#paint1_linear)" d="M61.627 67.251L39.09 28.495V5.175h1.012c.529-.011 1.032-.237 1.402-.627.37-.39.577-.914.577-1.46 0-.546-.208-1.07-.577-1.46-.37-.39-.873-.616-1.402-.628H27.96c-.53.012-1.033.237-1.402.628-.37.39-.577.914-.577 1.46 0 .546.207 1.07.577 1.46.37.39.873.616 1.402.628h1.012v23.319L6.435 67.25c-.277.475-.427 1.018-.435 1.572-.007.555.128 1.101.393 1.584.264.483.648.884 1.112 1.164.464.28.992.426 1.53.426H59.02c.538.001 1.066-.145 1.531-.424.465-.28.85-.68 1.115-1.163s.401-1.03.394-1.585c-.007-.555-.157-1.098-.434-1.574z"/>
    <path fill="#A5D170" d="M42.896 35.04c-1.58 3.563-2.36 7.448-2.286 11.366.075 3.918 1.004 7.768 2.717 11.265 1.714 3.497 4.168 6.551 7.181 8.936 3.014 2.385 6.51 4.039 10.227 4.84.64-.45 1.088-1.135 1.254-1.916.166-.78.036-1.596-.362-2.28L42.896 35.038z"/>
    <defs>
        <linearGradient id="paint0_linear" x1="46.219" x2="87.053" y1="36.501" y2="36.501" gradientUnits="userSpaceOnUse">
            <stop stop-color="#28A7DF"/>
            <stop offset="1" stop-color="#A5D170"/>
        </linearGradient>
        <linearGradient id="paint1_linear" x1="34.031" x2="34.031" y1="1" y2="71.997" gradientUnits="userSpaceOnUse">
            <stop stop-color="#28A7DF"/>
            <stop offset="1" stop-color="#2860DF"/>
        </linearGradient>
    </defs>
</svg>
