<svg xmlns="http://www.w3.org/2000/svg" id="Component_159_1" width="206" height="290" viewBox="0 0 206 290">
    <defs>
        <linearGradient id="linear-gradient" x1=".5" x2=".5" y1=".081" y2="1.034" gradientUnits="objectBoundingBox">
            <stop offset="0" stop-color="#a5d170"/>
            <stop offset="1" stop-color="#28a7df"/>
            <stop offset="1" stop-color="#0071bc"/>
        </linearGradient>
        <style>
            .cls-4{fill:#fff}.cls-5{fill:#42210b}.cls-6{fill:#fff3c0}
        </style>
    </defs>
    <ellipse id="Ellipse_113" cx="103" cy="100.957" fill="#a01e21" rx="103" ry="100.957"/>
    <path id="Path_162" fill="#a5d170" d="M281.335 465.7c.248 25.421-26.926 16.072-26.97 16.059l.565 14.776H134.2c0-2.647.072-11.118.088-12.606C97.912 516.486 80.78 405.794 171.3 367.31l-.32 4.141s10.875 6.657 23.442 7.091c6.92.238 14.355-1.407 20.766-7.091l-.154-2.872c53.766 9.869 65.884 54.579 66.301 97.121z" transform="translate(-91.094 -206.535)"/>
    <path id="Path_163" fill="url(#linear-gradient)" d="M480.18 468.32c.258 25.421-27.973 16.072-28.019 16.059l.587 14.776H389.89V381.163c7.189.238 14.913-1.406 21.574-7.091l-.16-2.872c55.852 9.868 68.442 54.579 68.876 97.12z" transform="translate(-289.938 -209.154)"/>
    <path id="Path_164" d="M361.188 319.4c-18.758 16-45.928 0-45.928 0l.587-7.329.627-7.78.715-8.915c.646-12 42.668 0 42.668 0z" class="cls-4" transform="translate(-236.189 -149.595)"/>
    <path id="Path_165" d="M336.222 65.316a46.464 46.464 0 0 0-92.9 2.256s-10.8 58.4 44.723 58.2c13.667-.054 52.393-.688 48.177-60.456z" class="cls-4" transform="translate(-187.157 35.126)"/>
    <path id="Path_166" d="M492.755 74.155s7.614 27.593 7.462 36.369c0 0 .765.462 4.767-7.368a74.844 74.844 0 0 0 8.066 4.993s9.137-36.549-12.819-42.216c-7.164-1.85-9.031 4.239-7.476 8.222z" class="cls-5" transform="translate(-357.088 4.541)"/>
    <circle id="Ellipse_114" cx="3.023" cy="3.023" r="3.023" transform="translate(85.688 109.008)"/>
    <circle id="Ellipse_115" cx="3.023" cy="3.023" r="3.023" transform="translate(115.143 109.008)"/>
    <path id="Path_167" d="M363.876 266.394a9.543 9.543 0 0 0 16.421 0z" transform="translate(-268.985 -132.73)"/>
    <circle id="Ellipse_116" cx="10.443" cy="10.443" r="10.443" class="cls-4" transform="translate(135.127 101.258)"/>
    <circle id="Ellipse_117" cx="10.443" cy="10.443" r="10.443" class="cls-4" transform="translate(47.997 102.514)"/>
    <path id="Path_168" d="M225.163 61.494c2.6 1.112 9.279 2.573 9.279-1.343 0-8.792-2.611-23.5 8.472-32.981 6.414-5.49 16.056-4.793 24.317-3.047s44.226 9.921 52.188-33.439c-9.267 9.421-68.007-19.3-89.944 16.094a18.291 18.291 0 0 0-7.921-.861 14.629 14.629 0 0 0 2.992 5.752A11.4 11.4 0 0 0 214.31 16.2c2.948-.852 5.78 2.248 6.058 5.3s-1.086 5.984-2.017 8.909c-1.884 5.916-1.023 12.349.59 18.345 0 .007 5.93-2.414 6.222 12.74z" class="cls-5" transform="translate(-167.946 57.262)"/>
    <path id="Path_169" d="M356.393 335.1c-10.175 8.116-30.5 7.222-39.333 6.38l.627-7.78a55.77 55.77 0 0 0 20.6 3.41 69.1 69.1 0 0 0 18.106-2.01z" class="cls-6" transform="translate(-237.296 -178.958)"/>
    <path id="Path_170" d="M530.022 181.484q.062 5.129-.328 9.612a5.214 5.214 0 0 0 .328-9.612z" class="cls-6" transform="translate(-382.25 -74.576)"/>
    <path id="Path_171" fill="#4d4d4d" d="M228.952 528.908a9.7 9.7 0 0 1-9.7-9.716l.078-62.232a9.743 9.743 0 0 1 9.586-9.691l91.916-1.119a9.651 9.651 0 0 1 9.7 9.45l1.626 62.211a9.7 9.7 0 0 1-9.582 9.957z" transform="translate(-171.631 -259.647)"/>
    <path id="Path_172" d="M233.238 184.033a4.845 4.845 0 0 0-4.736 4.822c0 2.8 2.315 4.919 4.739 5.6a76.483 76.483 0 0 1-.003-10.422z" class="cls-6" transform="translate(-176.139 -76.333)"/>
    <path id="Path_173" d="M335.63 524.634l-1.63-62.21a6.44 6.44 0 0 0-6.517-6.271l-91.8 1.118a6.44 6.44 0 0 0-6.362 6.432l-.078 62.232a6.44 6.44 0 0 0 6.519 6.448l93.5-1.139a6.44 6.44 0 0 0 6.368-6.61z" transform="translate(-178.25 -266.151)"/>
    <path id="Path_174" d="M0 20.32s4.447-9.254 4.2-13.459 2.43-4.066 2.43-4.066 2.547-.14 3.517 5.608c.524 3.1 2.677.973 3.8-.41 1.681-2.07 2.955-4.577 4.695-6.571A3.929 3.929 0 0 1 21.767 0a2.061 2.061 0 0 1 1.709.663 2.149 2.149 0 0 1 .333 1.613 4.147 4.147 0 0 1-.632 1.538c-.84 1.338-4.378 4.016-3.814 5.951.653 2.238 4.271-1.114 5.095-1.643 2.183-1.4 4.194-2.257 5.215-.7 1.334 2.033.3 4.206-3.638 6.029-3.535 1.635-4.73 4.767-.849 4.066s5.821-.841 6.064.982c.476 3.577-3.638 4.767-9.7 5.327S11 29.479 11 29.479z" class="cls-4" transform="matrix(0.996, 0.087, -0.087, 0.996, 40.645, 225.137)"/>
    <path id="Path_175" d="M30.3 20.208c-.182.108-3.3 1.956-6.219 3.683-2.638 1.565-5.112 3.029-5.112 3.029a18.5 18.5 0 0 0-9.8-5.646c-.87-.147-1.789-.293-2.711-.482A14.194 14.194 0 0 1 1.8 19.139c-1.226-.762-2.952-3.242-.73-4.091a4.111 4.111 0 0 1 2.306.035q1.708.351 3.41.706a2.491 2.491 0 0 0 .933.07c2.648-.493-1.674-3.4-2.264-3.746a8.2 8.2 0 0 1-2.253-1.7 3.191 3.191 0 0 1-.751-1.757 2.136 2.136 0 0 1 .1-.877c.496-1.431 1.778-1.279 2.834-.754 1.3.646 5.7 4.532 7.072 2.6.88-1.24-2.649-4.116-3.19-5.073C8.6 3.367 7.984.855 9.64.118a2.168 2.168 0 0 1 1.9.294A8.718 8.718 0 0 1 14.434 3.4c.87 1.37 1.537 2.858 2.47 4.186.629.891 1.9 3.026 3.172 3.019 1.618-.007 2.048-2.76 2.509-3.885.748-1.824 3.49-4.885 5.611-3.036a3.161 3.161 0 0 1 .619 2.816c-.28 2.358-1.087 4.724-.79 7.107.075.606 2.037 6.601 2.275 6.601z" class="cls-4" transform="translate(133.779 229.251) rotate(-14)"/>
    <g id="EI" transform="translate(29 3107)">
        <path id="Path_22137" d="M60-2878.667v15.333h18.4v-6.125H66.135v-6.136h6.125v-6.135h-6.125v-6.135H78.4V-2894H60z" class="cls-4"/>
        <path id="Path_22138" d="M2081.109-2893.6a4.417 4.417 0 0 0-2.552 1.081 4.417 4.417 0 0 0-1.2 4.956 4.809 4.809 0 0 0 .493.915 5.155 5.155 0 0 0 .771.841 4.458 4.458 0 0 0 2.343 1.01 5.622 5.622 0 0 0 .812.018 4.391 4.391 0 0 0 1.623-.432 4.431 4.431 0 0 0 2.417-3.172 3.5 3.5 0 0 0 .066-.806 3.517 3.517 0 0 0-.066-.806 4.434 4.434 0 0 0-2.064-2.981 4.452 4.452 0 0 0-1.776-.607 7.035 7.035 0 0 0-.867-.017z" class="cls-4" transform="translate(-1995.22 -0.387)"/>
        <path id="Path_22139" d="M1760-1756.936v3.066h6.131v12.26h6.135V-1760H1760z" class="cls-4" transform="translate(-1681.604 -1121.729)"/>
    </g>
</svg>
